<?xml version="1.0" encoding="UTF-8"?>
<svg id="OBJECTS" xmlns="http://www.w3.org/2000/svg" viewBox="0 0 149.04 170.66">
  <g id="icon">
    <g>
      <polygon points="121.7 134.58 94.82 161.98 67.94 134.58 71.03 131.43 94.82 107.18 118.61 131.43 121.7 134.58" style="fill: #b7241c;"/>
      <polygon points="104.82 134.58 86.46 153.3 68.1 134.58 70.21 132.43 86.46 115.87 102.71 132.43 104.82 134.58" style="fill: #ce3936; opacity: .22;"/>
      <polygon points="118.54 131.43 121.64 134.58 94.76 161.98 118.54 131.43" style="fill: #660808; opacity: .25;"/>
    </g>
    <g>
      <polygon points="121.93 38.93 94.82 66.57 67.7 38.93 94.82 11.28 121.93 38.93" style="fill: #b7241c;"/>
      <polygon points="102.47 38.93 85.09 56.65 67.7 38.93 85.09 21.21 102.47 38.93" style="fill: #ce3936; opacity: .22;"/>
      <polygon points="118.7 42.03 94.64 11.28 121.75 38.93 118.7 42.03" style="fill: #660808; opacity: .25;"/>
    </g>
    <g>
      <polygon points="77.36 109.59 88.23 95.62 77.36 106.71 77.36 109.59" style="fill: #b7241c;"/>
      <path d="M64.45,112.43c.84,0,1.53-.7,1.53-1.56s-.69-1.56-1.53-1.56-1.53,.7-1.53,1.56,.69,1.56,1.53,1.56Z" style="fill: #b7241c;"/>
      <path d="M74.26,105.4l16.76-17.08c-.22-.55-.35-1.15-.35-1.78,0-1.49,.68-2.82,1.74-3.68l-30.16-38.54,3.27-3.33,44.88,45.75h0s-44.88-45.75-44.88-45.75l-3.27,3.33-11.3,11.52-30.32,30.9h0s30.31-30.9,30.31-30.9l6.25,6.37h0s0,0,0,0h0c0-2.6,2.08-4.72,4.63-4.72s4.62,2.12,4.62,4.71-2.07,4.71-4.62,4.71h0s0,0,0,0h0s14.64,14.92,14.64,14.92c0,0,0,0,0,0,.05,0,.09,0,.14,0,2.55,0,4.63,2.12,4.63,4.71,0,.05,0,.09,0,.14h0s.05,.06,.05,.06l-.05,.05h0s0,0,0,0c-.13,2.4-2.02,4.33-4.37,4.46h0s0,0,0,0l-25.88,26.38,2.4,2.45,6.96-7.09c-.32-.64-.5-1.36-.5-2.12,0-2.6,2.08-4.71,4.63-4.71s4.63,2.12,4.63,4.71-2.08,4.71-4.63,4.71c-.67,0-1.31-.15-1.88-.42l-7.02,7.15,4.16,4.24,14.55-14.83v-6.33Z" style="fill: #b7241c;"/>
      <path d="M94.35,85.33c-.35,.29-.58,.72-.58,1.21s.23,.93,.58,1.21l.94-1.21-.95-1.21Z" style="fill: #b7241c;"/>
      <path d="M61.83,63.75c.84,0,1.52-.7,1.52-1.56s-.68-1.56-1.52-1.56-1.53,.7-1.53,1.56,.68,1.56,1.53,1.56Z" style="fill: #b7241c;"/>
      <polygon points="61.9 128.79 62.19 129.08 62.19 129.08 64.38 126.27 61.9 128.79" style="fill: #b7241c;"/>
      <polygon points="65.52 132.48 62.19 129.08 62.19 129.08 65.52 132.49 110.41 86.74 110.41 86.74 65.52 132.48" style="fill: #660808; opacity: .25;"/>
      <path d="M96.83,86.54c0-.86-.69-1.56-1.53-1.56-.36,0-.69,.13-.95,.35l.95,1.21-.94,1.21c.26,.21,.59,.34,.94,.34,.84,0,1.53-.7,1.53-1.56Z" style="fill: #b7241c;"/>
      <path d="M96.83,86.54c0-.86-.69-1.56-1.53-1.56-.36,0-.69,.13-.95,.35l.95,1.21-.94,1.21c.26,.21,.59,.34,.94,.34,.84,0,1.53-.7,1.53-1.56Z" style="fill: #660808; opacity: .25;"/>
      <path d="M110.41,86.74l-44.88-45.75-3.27,3.33,30.16,38.54c.79-.65,1.79-1.03,2.88-1.03,2.55,0,4.63,2.12,4.63,4.71s-2.08,4.71-4.63,4.71c-.81,0-1.56-.21-2.21-.58l-4.85,4.94-10.88,13.97v3.44l-12.98,13.23-2.19,2.82,3.34,3.4,44.88-45.75Z" style="fill: #b7241c;"/>
      <path d="M110.41,86.74l-44.88-45.75-3.27,3.33,30.16,38.54c.79-.65,1.79-1.03,2.88-1.03,2.55,0,4.63,2.12,4.63,4.71s-2.08,4.71-4.63,4.71c-.81,0-1.56-.21-2.21-.58l-4.85,4.94-10.88,13.97v3.44l-12.98,13.23-2.19,2.82,3.34,3.4,44.88-45.75Z" style="fill: #660808; opacity: .25;"/>
      <polygon points="46.53 113.13 44.34 110.89 38.54 104.99 36.35 102.75 30.32 96.6 28.13 94.37 20.64 86.74 20.64 86.74 28.13 94.37 30.32 96.6 36.35 102.76 38.54 104.99 44.34 110.9 46.53 113.13 50.96 117.64 50.96 117.64 50.96 117.63 46.53 113.13" style="fill: #ce3936; opacity: .22;"/>
      <path d="M58.75,83.56c.84,0,1.53-.7,1.53-1.56s-.69-1.56-1.53-1.56-1.53,.7-1.53,1.56,.69,1.56,1.53,1.56Z" style="fill: #b7241c;"/>
      <path d="M58.75,83.56c.84,0,1.53-.7,1.53-1.56s-.69-1.56-1.53-1.56-1.53,.7-1.53,1.56,.69,1.56,1.53,1.56Z" style="fill: #ce3936; opacity: .22;"/>
      <polygon points="81.22 86.79 81.22 86.79 81.22 86.79 81.22 86.79" style="fill: #b7241c;"/>
      <polygon points="81.22 86.79 81.22 86.79 81.22 86.79 81.22 86.79" style="fill: #ce3936; opacity: .22;"/>
      <path d="M76.84,91.25h0s0,0,0,0h0c-.08,0-.16,0-.24,0-.57,0-1.13-.11-1.63-.31l-11.56,11.79h-6.68l-10.19,10.39,4.43,4.51h0s25.88-26.38,25.88-26.38h0Z" style="fill: #b7241c;"/>
      <path d="M76.84,91.25h0s0,0,0,0h0c-.08,0-.16,0-.24,0-.57,0-1.13-.11-1.63-.31l-11.56,11.79h-6.68l-10.19,10.39,4.43,4.51h0s25.88-26.38,25.88-26.38h0Z" style="fill: #ce3936; opacity: .22;"/>
      <polygon points="81.27 86.74 81.22 86.69 81.22 86.79 81.27 86.74" style="fill: #b7241c;"/>
      <polygon points="81.27 86.74 81.22 86.69 81.22 86.79 81.27 86.74" style="fill: #ce3936; opacity: .22;"/>
      <path d="M49.07,77.1v5.18l-9.59,9.77h-4.7l-4.47,4.55,6.03,6.16,18.27-18.63c-.32-.64-.5-1.36-.5-2.12,0-2.6,2.08-4.71,4.63-4.71s4.63,2.12,4.63,4.71-2.08,4.71-4.63,4.71c-.67,0-1.31-.15-1.88-.42l-18.32,18.68,5.8,5.91,11.1-11.32h6.68l10.48-10.68c-.39-.69-.62-1.5-.62-2.36,0-2.55,2-4.63,4.48-4.71l-14.64-14.92h0c-.8,0-1.54-.21-2.2-.58l-10.56,10.76Z" style="fill: #b7241c;"/>
      <path d="M49.07,77.1v5.18l-9.59,9.77h-4.7l-4.47,4.55,6.03,6.16,18.27-18.63c-.32-.64-.5-1.36-.5-2.12,0-2.6,2.08-4.71,4.63-4.71s4.63,2.12,4.63,4.71-2.08,4.71-4.63,4.71c-.67,0-1.31-.15-1.88-.42l-18.32,18.68,5.8,5.91,11.1-11.32h6.68l10.48-10.68c-.39-.69-.62-1.5-.62-2.36,0-2.55,2-4.63,4.48-4.71l-14.64-14.92h0c-.8,0-1.54-.21-2.2-.58l-10.56,10.76Z" style="fill: #ce3936; opacity: .22;"/>
      <path d="M76.6,88.1c.84,0,1.53-.7,1.53-1.56s-.69-1.56-1.53-1.56-1.53,.7-1.53,1.56,.69,1.56,1.53,1.56Z" style="fill: #b7241c;"/>
      <path d="M76.6,88.1c.84,0,1.53-.7,1.53-1.56s-.69-1.56-1.53-1.56-1.53,.7-1.53,1.56,.69,1.56,1.53,1.56Z" style="fill: #ce3936; opacity: .22;"/>
      <path d="M33.5,88.89h4.7l7.77-7.92v-5.18l11.58-11.8c-.22-.55-.35-1.15-.35-1.78h0s-6.25-6.37-6.25-6.37l-30.31,30.9,7.48,7.63,5.37-5.48Z" style="fill: #b7241c;"/>
      <path d="M33.5,88.89h4.7l7.77-7.92v-5.18l11.58-11.8c-.22-.55-.35-1.15-.35-1.78h0s-6.25-6.37-6.25-6.37l-30.31,30.9,7.48,7.63,5.37-5.48Z" style="fill: #ce3936; opacity: .22;"/>
      <path d="M77.36,109.59v-2.89l10.88-11.08,6.12-7.87c-.35-.29-.58-.72-.58-1.21s.23-.92,.58-1.21l-1.93-2.47c-1.06,.86-1.74,2.19-1.74,3.68,0,.63,.12,1.23,.35,1.78l-16.76,17.08v6.33l-14.55,14.83,2.19,2.23,2.48-2.52,12.98-16.67Z" style="fill: none;"/>
      <polygon points="77.36 113.04 77.36 109.59 64.38 126.27 77.36 113.04" style="fill: none;"/>
      <path d="M95.3,84.98c.84,0,1.53,.7,1.53,1.56s-.69,1.56-1.53,1.56c-.36,0-.68-.13-.94-.34l-6.12,7.87,4.85-4.94c.66,.37,1.41,.58,2.21,.58,2.55,0,4.63-2.12,4.63-4.71s-2.08-4.71-4.63-4.71c-1.09,0-2.09,.39-2.88,1.03l1.93,2.47c.26-.21,.59-.35,.95-.35Z" style="fill: none;"/>
      <path d="M58.75,86.72c2.55,0,4.63-2.12,4.63-4.71s-2.08-4.71-4.63-4.71-4.63,2.12-4.63,4.71c0,.76,.18,1.48,.5,2.12l-18.27,18.63,2.19,2.23,18.32-18.68c.57,.26,1.21,.42,1.88,.42Zm0-6.27c.84,0,1.53,.7,1.53,1.56s-.69,1.56-1.53,1.56-1.53-.7-1.53-1.56,.69-1.56,1.53-1.56Z" style="fill: none;"/>
      <path d="M64.45,115.59c2.55,0,4.63-2.12,4.63-4.71s-2.08-4.71-4.63-4.71-4.63,2.12-4.63,4.71c0,.76,.18,1.48,.5,2.12l-6.96,7.09,2.19,2.24,7.02-7.15c.57,.27,1.21,.42,1.88,.42Zm0-6.27c.84,0,1.53,.7,1.53,1.56s-.69,1.56-1.53,1.56-1.53-.7-1.53-1.56,.69-1.56,1.53-1.56Z" style="fill: none;"/>
      <path d="M81.22,86.69h0c0-.05,0-.1,0-.14,0-2.6-2.08-4.71-4.63-4.71-.05,0-.09,0-.14,0,0,0,0,0,0,0h0s4.76,4.85,4.76,4.85Z" style="fill: none;"/>
      <path d="M62.12,99.58h-6.68l-11.1,11.32,2.19,2.23,10.19-10.39h6.68l11.56-11.79c.51,.2,1.06,.31,1.63,.31,.08,0,.16,0,.24,0h0s0,0,0,0l4.37-4.46s0,0,0,0h0v-.1l-4.76-4.85h0c-2.49,.07-4.48,2.16-4.48,4.71,0,.86,.23,1.66,.62,2.36l-10.48,10.68Zm14.48-14.59c.84,0,1.53,.7,1.53,1.56s-.69,1.56-1.53,1.56-1.53-.7-1.53-1.56,.69-1.56,1.53-1.56Z" style="fill: none;"/>
      <path d="M61.82,66.91h0c2.55,0,4.62-2.12,4.62-4.71s-2.07-4.71-4.62-4.71-4.63,2.12-4.63,4.71h0s0,0,0,0l4.62,4.71s0,0,0,0Zm0-6.27c.84,0,1.52,.7,1.52,1.56s-.68,1.56-1.52,1.56-1.53-.7-1.53-1.56,.68-1.56,1.53-1.56Z" style="fill: none;"/>
      <path d="M45.97,75.79v5.18l-7.77,7.92h-4.7l-5.37,5.48,2.19,2.23,4.47-4.55h4.7l9.59-9.77v-5.18l10.56-10.76c.65,.36,1.4,.57,2.2,.57l-4.62-4.71c0,.63,.12,1.23,.35,1.78l-11.58,11.8Z" style="fill: none;"/>
    </g>
  </g>
</svg>