<?xml version="1.0" encoding="UTF-8"?>
<svg id="OBJECTS" xmlns="http://www.w3.org/2000/svg" viewBox="0 0 437.3 196.49">
  <g id="icon">
    <g>
      <polygon points="122.59 152.8 92.01 183.97 61.43 152.8 64.95 149.21 92.01 121.63 119.08 149.21 122.59 152.8" style="fill: #b7241c;"/>
      <polygon points="103.39 152.8 82.5 174.09 61.61 152.8 64.01 150.35 82.5 131.51 100.99 150.35 103.39 152.8" style="fill: #ce3936; opacity: .22;"/>
      <polygon points="119.01 149.21 122.52 152.8 91.94 183.97 119.01 149.21" style="fill: #660808; opacity: .25;"/>
    </g>
    <g>
      <polygon points="122.86 43.97 92.01 75.42 61.16 43.97 92.01 12.52 122.86 43.97" style="fill: #b7241c;"/>
      <polygon points="100.72 43.97 80.94 64.13 61.16 43.97 80.94 23.81 100.72 43.97" style="fill: #ce3936; opacity: .22;"/>
      <polygon points="119.19 47.51 91.81 12.52 122.66 43.97 119.19 47.51" style="fill: #660808; opacity: .25;"/>
    </g>
    <g>
      <polygon points="72.15 124.37 84.52 108.48 72.15 121.09 72.15 124.37" style="fill: #b7241c;"/>
      <path d="M57.46,127.6c.96,0,1.74-.8,1.74-1.77s-.78-1.77-1.74-1.77-1.74,.8-1.74,1.77,.78,1.77,1.74,1.77Z" style="fill: #b7241c;"/>
      <path d="M68.62,119.6l19.07-19.43c-.25-.62-.39-1.31-.39-2.02,0-1.69,.78-3.2,1.98-4.19L54.97,50.11l3.72-3.79,51.06,52.05h0S58.69,46.31,58.69,46.31l-3.72,3.79-12.86,13.1L7.62,98.37h0S42.11,63.21,42.11,63.21l7.11,7.24h0s0,0,0,0h0c0-2.96,2.36-5.37,5.26-5.37s5.26,2.41,5.26,5.36-2.36,5.36-5.26,5.36h0s0,0,0,0h0s16.65,16.98,16.65,16.98c0,0,0,0,0,0,.05,0,.11,0,.16,0,2.9,0,5.26,2.41,5.26,5.36,0,.05,0,.11,0,.16h0s.06,.06,.06,.06l-.06,.05h0s0,0,0,0c-.14,2.73-2.3,4.93-4.98,5.07h0s0,0,0,0l-29.45,30.02,2.74,2.79,7.92-8.07c-.36-.72-.57-1.54-.57-2.41,0-2.96,2.36-5.36,5.26-5.36s5.26,2.41,5.26,5.36-2.36,5.36-5.26,5.36c-.76,0-1.49-.17-2.14-.47l-7.98,8.14,4.73,4.82,16.55-16.87v-7.2Z" style="fill: #b7241c;"/>
      <path d="M91.48,96.77c-.4,.33-.66,.82-.66,1.38s.26,1.06,.66,1.38l1.07-1.38-1.08-1.38Z" style="fill: #b7241c;"/>
      <path d="M54.48,72.22c.96,0,1.73-.8,1.73-1.77s-.78-1.77-1.73-1.77-1.74,.8-1.74,1.77,.78,1.77,1.74,1.77Z" style="fill: #b7241c;"/>
      <polygon points="54.56 146.21 54.89 146.54 54.89 146.54 57.38 143.34 54.56 146.21" style="fill: #b7241c;"/>
      <polygon points="58.69 150.41 54.89 146.54 54.89 146.54 58.69 150.42 109.75 98.37 109.75 98.37 58.69 150.41" style="fill: #660808; opacity: .25;"/>
      <path d="M94.3,98.14c0-.98-.78-1.77-1.74-1.77-.41,0-.78,.15-1.08,.4l1.08,1.38-1.07,1.38c.3,.24,.67,.39,1.07,.39,.96,0,1.74-.8,1.74-1.77Z" style="fill: #b7241c;"/>
      <path d="M94.3,98.14c0-.98-.78-1.77-1.74-1.77-.41,0-.78,.15-1.08,.4l1.08,1.38-1.07,1.38c.3,.24,.67,.39,1.07,.39,.96,0,1.74-.8,1.74-1.77Z" style="fill: #660808; opacity: .25;"/>
      <path d="M109.75,98.37L58.69,46.32l-3.72,3.79,34.31,43.85c.9-.73,2.04-1.18,3.28-1.18,2.9,0,5.26,2.41,5.26,5.36s-2.36,5.36-5.26,5.36c-.92,0-1.77-.24-2.52-.66l-5.52,5.63-12.37,15.9v3.92l-14.77,15.05-2.49,3.2,3.8,3.87,51.06-52.05Z" style="fill: #b7241c;"/>
      <path d="M109.75,98.37L58.69,46.32l-3.72,3.79,34.31,43.85c.9-.73,2.04-1.18,3.28-1.18,2.9,0,5.26,2.41,5.26,5.36s-2.36,5.36-5.26,5.36c-.92,0-1.77-.24-2.52-.66l-5.52,5.63-12.37,15.9v3.92l-14.77,15.05-2.49,3.2,3.8,3.87,51.06-52.05Z" style="fill: #660808; opacity: .25;"/>
      <polygon points="37.07 128.39 34.58 125.85 27.99 119.13 25.5 116.59 18.63 109.59 16.14 107.05 7.62 98.37 7.62 98.37 16.14 107.05 18.63 109.59 25.5 116.59 27.99 119.13 34.58 125.85 37.07 128.39 42.11 133.52 42.11 133.52 42.11 133.52 37.07 128.39" style="fill: #ce3936; opacity: .22;"/>
      <path d="M50.98,94.76c.96,0,1.74-.8,1.74-1.77s-.78-1.77-1.74-1.77-1.74,.8-1.74,1.77,.78,1.77,1.74,1.77Z" style="fill: #b7241c;"/>
      <path d="M50.98,94.76c.96,0,1.74-.8,1.74-1.77s-.78-1.77-1.74-1.77-1.74,.8-1.74,1.77,.78,1.77,1.74,1.77Z" style="fill: #ce3936; opacity: .22;"/>
      <polygon points="76.54 98.43 76.54 98.43 76.54 98.43 76.54 98.43" style="fill: #b7241c;"/>
      <polygon points="76.54 98.43 76.54 98.43 76.54 98.43 76.54 98.43" style="fill: #ce3936; opacity: .22;"/>
      <path d="M71.56,103.51h0s0,0,0,0h0c-.09,0-.18,0-.27,0-.65,0-1.28-.13-1.86-.35l-13.16,13.41h-7.61l-11.6,11.82,5.04,5.13h0s29.45-30.01,29.45-30.01h0Z" style="fill: #b7241c;"/>
      <path d="M71.56,103.51h0s0,0,0,0h0c-.09,0-.18,0-.27,0-.65,0-1.28-.13-1.86-.35l-13.16,13.41h-7.61l-11.6,11.82,5.04,5.13h0s29.45-30.01,29.45-30.01h0Z" style="fill: #ce3936; opacity: .22;"/>
      <polygon points="76.6 98.37 76.54 98.31 76.54 98.42 76.6 98.37" style="fill: #b7241c;"/>
      <polygon points="76.6 98.37 76.54 98.31 76.54 98.42 76.6 98.37" style="fill: #ce3936; opacity: .22;"/>
      <path d="M39.96,87.4v5.89l-10.91,11.12h-5.34l-5.08,5.18,6.87,7,20.79-21.19c-.36-.72-.57-1.54-.57-2.41,0-2.96,2.36-5.36,5.26-5.36s5.26,2.41,5.26,5.36-2.36,5.36-5.26,5.36c-.76,0-1.49-.17-2.14-.47l-20.85,21.25,6.6,6.72,12.63-12.88h7.61l11.92-12.15c-.45-.79-.71-1.71-.71-2.68,0-2.9,2.27-5.27,5.1-5.36l-16.65-16.98h0c-.91,0-1.75-.24-2.5-.66l-12.01,12.24Z" style="fill: #b7241c;"/>
      <path d="M39.96,87.4v5.89l-10.91,11.12h-5.34l-5.08,5.18,6.87,7,20.79-21.19c-.36-.72-.57-1.54-.57-2.41,0-2.96,2.36-5.36,5.26-5.36s5.26,2.41,5.26,5.36-2.36,5.36-5.26,5.36c-.76,0-1.49-.17-2.14-.47l-20.85,21.25,6.6,6.72,12.63-12.88h7.61l11.92-12.15c-.45-.79-.71-1.71-.71-2.68,0-2.9,2.27-5.27,5.1-5.36l-16.65-16.98h0c-.91,0-1.75-.24-2.5-.66l-12.01,12.24Z" style="fill: #ce3936; opacity: .22;"/>
      <path d="M71.29,99.92c.96,0,1.74-.8,1.74-1.77s-.78-1.77-1.74-1.77-1.74,.8-1.74,1.77,.78,1.77,1.74,1.77Z" style="fill: #b7241c;"/>
      <path d="M71.29,99.92c.96,0,1.74-.8,1.74-1.77s-.78-1.77-1.74-1.77-1.74,.8-1.74,1.77,.78,1.77,1.74,1.77Z" style="fill: #ce3936; opacity: .22;"/>
      <path d="M22.25,100.81h5.35l8.84-9.02v-5.89l13.17-13.43c-.25-.63-.39-1.31-.39-2.03h0s-7.11-7.24-7.11-7.24L7.62,98.37l8.51,8.68,6.11-6.23Z" style="fill: #b7241c;"/>
      <path d="M22.25,100.81h5.35l8.84-9.02v-5.89l13.17-13.43c-.25-.63-.39-1.31-.39-2.03h0s-7.11-7.24-7.11-7.24L7.62,98.37l8.51,8.68,6.11-6.23Z" style="fill: #ce3936; opacity: .22;"/>
      <path d="M72.15,124.37v-3.29l12.37-12.61,6.97-8.95c-.4-.33-.66-.82-.66-1.38s.26-1.05,.66-1.38l-2.2-2.81c-1.21,.98-1.98,2.49-1.98,4.19,0,.72,.14,1.4,.39,2.02l-19.07,19.43v7.2l-16.55,16.87,2.49,2.54,2.82-2.87,14.77-18.97Z" style="fill: none;"/>
      <polygon points="72.15 128.29 72.15 124.37 57.38 143.34 72.15 128.29" style="fill: none;"/>
      <path d="M92.56,96.37c.96,0,1.74,.8,1.74,1.77s-.78,1.77-1.74,1.77c-.41,0-.78-.15-1.07-.39l-6.97,8.95,5.52-5.63c.75,.42,1.6,.66,2.52,.66,2.9,0,5.26-2.41,5.26-5.36s-2.36-5.36-5.26-5.36c-1.24,0-2.38,.44-3.28,1.18l2.2,2.81c.3-.24,.67-.4,1.08-.4Z" style="fill: none;"/>
      <path d="M50.98,98.35c2.9,0,5.26-2.41,5.26-5.36s-2.36-5.36-5.26-5.36-5.26,2.41-5.26,5.36c0,.87,.21,1.69,.57,2.41l-20.79,21.19,2.49,2.54,20.85-21.25c.65,.3,1.38,.47,2.14,.47Zm0-7.14c.96,0,1.74,.8,1.74,1.77s-.78,1.77-1.74,1.77-1.74-.8-1.74-1.77,.78-1.77,1.74-1.77Z" style="fill: none;"/>
      <path d="M57.46,131.19c2.9,0,5.26-2.41,5.26-5.36s-2.36-5.36-5.26-5.36-5.26,2.41-5.26,5.36c0,.87,.21,1.69,.57,2.41l-7.92,8.07,2.49,2.54,7.98-8.14c.65,.31,1.38,.47,2.14,.47Zm0-7.14c.96,0,1.74,.8,1.74,1.77s-.78,1.77-1.74,1.77-1.74-.8-1.74-1.77,.78-1.77,1.74-1.77Z" style="fill: none;"/>
      <path d="M76.54,98.31h0c0-.06,0-.11,0-.16,0-2.96-2.36-5.36-5.26-5.36-.05,0-.11,0-.16,0,0,0,0,0,0,0h0s5.41,5.52,5.41,5.52Z" style="fill: none;"/>
      <path d="M54.82,112.97h-7.61l-12.63,12.88,2.49,2.54,11.6-11.82h7.61l13.16-13.41c.58,.23,1.2,.35,1.86,.35,.09,0,.18,0,.27,0h0s0,0,0,0l4.98-5.07s0,0,0,0h0v-.12l-5.41-5.52h0c-2.83,.08-5.1,2.45-5.1,5.35,0,.98,.26,1.89,.71,2.68l-11.92,12.15Zm16.47-16.6c.96,0,1.74,.8,1.74,1.77s-.78,1.77-1.74,1.77-1.74-.8-1.74-1.77,.78-1.77,1.74-1.77Z" style="fill: none;"/>
      <path d="M54.47,75.81h0c2.9,0,5.26-2.41,5.26-5.36s-2.36-5.36-5.26-5.36-5.26,2.41-5.26,5.36h0s0,0,0,0l5.25,5.35s0,0,0,0Zm0-7.14c.96,0,1.73,.8,1.73,1.77s-.78,1.77-1.73,1.77-1.74-.8-1.74-1.77,.78-1.77,1.74-1.77Z" style="fill: none;"/>
      <path d="M36.44,85.91v5.89l-8.84,9.02h-5.35l-6.11,6.23,2.5,2.54,5.08-5.18h5.34l10.91-11.12v-5.89l12.01-12.24c.75,.41,1.59,.65,2.5,.65l-5.25-5.35c0,.72,.14,1.4,.39,2.03l-13.17,13.43Z" style="fill: none;"/>
    </g>
  </g>
  <g>
    <path d="M135.74,73.9v30.12c0,3.3,.84,5.82,2.53,7.56,1.69,1.74,4.06,2.61,7.11,2.61s5.49-.87,7.18-2.61c1.69-1.74,2.53-4.26,2.53-7.56v-30.12h9.64v30.05c0,4.14-.88,7.63-2.63,10.49-1.76,2.86-4.1,5.01-7.04,6.45-2.94,1.44-6.21,2.16-9.81,2.16s-6.78-.72-9.68-2.16c-2.9-1.44-5.19-3.59-6.87-6.45-1.69-2.86-2.53-6.35-2.53-10.49v-30.05h9.57Z" style="fill: #151515;"/>
    <path d="M205.91,87.74c2.78,2.91,4.17,6.96,4.17,12.16v22.66h-9.57v-21.33c0-3.07-.75-5.43-2.26-7.08-1.5-1.65-3.56-2.47-6.15-2.47s-4.73,.83-6.26,2.47c-1.53,1.65-2.29,4.01-2.29,7.08v21.33h-9.57v-38.62h9.57v4.81c1.28-1.67,2.91-2.99,4.89-3.94,1.98-.95,4.16-1.43,6.53-1.43,4.51,0,8.16,1.45,10.94,4.36Z" style="fill: #151515;"/>
    <path d="M219.82,77.7c-1.12-1.09-1.68-2.45-1.68-4.08s.56-2.99,1.68-4.08c1.12-1.09,2.52-1.64,4.21-1.64s3.09,.55,4.21,1.64c1.12,1.09,1.68,2.45,1.68,4.08s-.56,2.99-1.68,4.08c-1.12,1.09-2.52,1.64-4.21,1.64s-3.09-.54-4.21-1.64Zm8.92,6.24v38.62h-9.57v-38.62h9.57Z" style="fill: #151515;"/>
    <path d="M252.85,85.05c2.16-1.16,4.64-1.74,7.42-1.74,3.24,0,6.17,.81,8.79,2.44,2.62,1.63,4.7,3.94,6.22,6.94,1.53,3,2.29,6.47,2.29,10.42s-.76,7.45-2.29,10.49c-1.53,3.04-3.6,5.4-6.22,7.08-2.62,1.67-5.55,2.51-8.79,2.51-2.83,0-5.3-.57-7.42-1.71-2.12-1.14-3.82-2.61-5.09-4.43v5.51h-9.57v-51.59h9.57v18.61c1.23-1.86,2.93-3.37,5.09-4.53Zm13.54,12.02c-.93-1.7-2.17-2.99-3.69-3.87-1.53-.88-3.18-1.33-4.96-1.33s-3.36,.45-4.89,1.36c-1.53,.91-2.76,2.22-3.69,3.94-.93,1.72-1.4,3.74-1.4,6.07s.47,4.35,1.4,6.06c.93,1.72,2.17,3.03,3.69,3.94,1.53,.91,3.16,1.36,4.89,1.36s3.43-.46,4.96-1.39c1.53-.93,2.76-2.25,3.69-3.97,.93-1.72,1.4-3.76,1.4-6.13s-.47-4.33-1.4-6.03Z" style="fill: #151515;"/>
    <path d="M320.79,83.94l-23.46,56.88h-10.19l8.21-19.24-15.18-37.64h10.74l9.78,26.98,9.92-26.98h10.19Z" style="fill: #151515;"/>
    <path d="M337.07,91.96v18.68c0,1.3,.31,2.24,.92,2.82,.62,.58,1.65,.87,3.11,.87h4.45v8.23h-6.02c-8.07,0-12.1-4-12.1-11.99v-18.61h-4.51v-8.02h4.51v-9.55h9.64v9.55h8.48v8.02h-8.48Z" style="fill: #151515;"/>
    <path d="M387.4,106.18h-27.7c.23,2.79,1.18,4.97,2.87,6.55,1.69,1.58,3.76,2.37,6.22,2.37,3.56,0,6.09-1.56,7.59-4.67h10.33c-1.09,3.72-3.19,6.77-6.29,9.17-3.1,2.39-6.91,3.59-11.42,3.59-3.65,0-6.92-.82-9.81-2.47-2.9-1.65-5.15-3.98-6.77-7.01-1.62-3.02-2.43-6.51-2.43-10.46s.8-7.5,2.39-10.53c1.59-3.02,3.83-5.34,6.7-6.97,2.87-1.63,6.18-2.44,9.92-2.44s6.83,.79,9.68,2.37c2.85,1.58,5.06,3.82,6.63,6.73,1.57,2.9,2.36,6.24,2.36,10,0,1.39-.09,2.65-.27,3.76Zm-9.64-6.55c-.05-2.51-.94-4.52-2.67-6.03-1.73-1.51-3.85-2.27-6.36-2.27-2.37,0-4.37,.73-5.98,2.2-1.62,1.46-2.61,3.5-2.97,6.1h17.99Z" style="fill: #151515;"/>
    <path d="M400.8,121.48c-2.46-1.14-4.41-2.68-5.85-4.64-1.44-1.95-2.22-4.11-2.36-6.48h9.64c.18,1.49,.9,2.72,2.15,3.69,1.25,.98,2.81,1.46,4.68,1.46s3.25-.37,4.27-1.12c1.03-.74,1.54-1.7,1.54-2.86,0-1.25-.63-2.2-1.88-2.82-1.25-.63-3.25-1.31-5.98-2.06-2.83-.7-5.14-1.42-6.94-2.16-1.8-.74-3.35-1.88-4.65-3.42-1.3-1.53-1.95-3.6-1.95-6.2,0-2.14,.6-4.09,1.81-5.86,1.21-1.77,2.94-3.16,5.2-4.18s4.91-1.53,7.97-1.53c4.51,0,8.11,1.15,10.81,3.45,2.69,2.3,4.17,5.4,4.44,9.31h-9.16c-.14-1.53-.76-2.75-1.88-3.66-1.12-.91-2.61-1.36-4.48-1.36-1.73,0-3.07,.33-4,.98-.94,.65-1.4,1.56-1.4,2.72,0,1.3,.64,2.29,1.92,2.96,1.28,.67,3.26,1.36,5.95,2.06,2.74,.7,4.99,1.42,6.77,2.16s3.32,1.89,4.62,3.45c1.3,1.56,1.97,3.61,2.02,6.17,0,2.23-.6,4.23-1.81,6-1.21,1.77-2.94,3.15-5.2,4.15-2.26,1-4.89,1.5-7.9,1.5s-5.88-.57-8.34-1.71Z" style="fill: #151515;"/>
  </g>
</svg>