<?xml version="1.0" encoding="UTF-8"?>
<svg id="OBJECTS" xmlns="http://www.w3.org/2000/svg" viewBox="0 0 437.3 372.76">
  <g>
    <g>
      <path d="M142.22,302.38v18.62c0,2.04,.52,3.6,1.56,4.67,1.04,1.08,2.51,1.62,4.4,1.62s3.4-.54,4.44-1.62c1.04-1.08,1.56-2.63,1.56-4.67v-18.62h5.96v18.57c0,2.56-.54,4.72-1.63,6.49-1.09,1.77-2.54,3.1-4.35,3.99-1.82,.89-3.84,1.34-6.07,1.34s-4.19-.45-5.98-1.34c-1.79-.89-3.21-2.22-4.25-3.99-1.04-1.77-1.56-3.93-1.56-6.49v-18.57h5.92Z" style="fill: #151515;"/>
      <path d="M185.59,310.93c1.72,1.8,2.58,4.3,2.58,7.52v14h-5.92v-13.19c0-1.9-.46-3.35-1.39-4.37-.93-1.02-2.2-1.53-3.8-1.53s-2.92,.51-3.87,1.53c-.94,1.02-1.42,2.48-1.42,4.37v13.19h-5.92v-23.87h5.92v2.97c.79-1.03,1.8-1.85,3.02-2.43,1.23-.59,2.57-.88,4.04-.88,2.79,0,5.04,.9,6.76,2.69Z" style="fill: #151515;"/>
      <path d="M194.19,304.73c-.69-.67-1.04-1.51-1.04-2.52s.34-1.85,1.04-2.52c.69-.67,1.56-1.01,2.6-1.01s1.91,.34,2.6,1.01c.69,.68,1.04,1.52,1.04,2.52s-.35,1.85-1.04,2.52c-.69,.67-1.56,1.01-2.6,1.01s-1.91-.34-2.6-1.01Zm5.52,3.86v23.87h-5.92v-23.87h5.92Z" style="fill: #151515;"/>
      <path d="M214.61,309.27c1.34-.72,2.87-1.08,4.59-1.08,2,0,3.81,.5,5.43,1.51,1.62,1.01,2.9,2.43,3.85,4.29,.94,1.85,1.42,4,1.42,6.44s-.47,4.6-1.42,6.49c-.94,1.88-2.23,3.34-3.85,4.37-1.62,1.03-3.43,1.55-5.43,1.55-1.75,0-3.28-.35-4.59-1.06-1.31-.7-2.36-1.62-3.15-2.74v3.4h-5.92v-31.89h5.92v11.5c.76-1.15,1.81-2.08,3.15-2.8Zm8.37,7.43c-.58-1.05-1.34-1.85-2.28-2.39-.95-.55-1.97-.82-3.07-.82s-2.08,.28-3.02,.84c-.94,.56-1.71,1.37-2.28,2.43s-.87,2.31-.87,3.75,.29,2.69,.87,3.75c.58,1.06,1.34,1.88,2.28,2.43,.94,.56,1.95,.84,3.02,.84s2.12-.29,3.07-.86c.94-.57,1.7-1.39,2.28-2.46,.58-1.06,.87-2.33,.87-3.79s-.29-2.68-.87-3.73Z" style="fill: #151515;"/>
      <path d="M256.6,308.58l-14.5,35.16h-6.3l5.07-11.89-9.38-23.27h6.64l6.04,16.68,6.13-16.68h6.3Z" style="fill: #151515;"/>
      <path d="M266.66,313.54v11.55c0,.8,.19,1.39,.57,1.75,.38,.36,1.02,.54,1.92,.54h2.75v5.08h-3.72c-4.99,0-7.48-2.47-7.48-7.41v-11.51h-2.79v-4.96h2.79v-5.9h5.96v5.9h5.24v4.96h-5.24Z" style="fill: #151515;"/>
      <path d="M297.77,322.33h-17.12c.14,1.72,.73,3.07,1.78,4.05,1.04,.98,2.33,1.47,3.85,1.47,2.2,0,3.76-.96,4.69-2.89h6.38c-.68,2.3-1.97,4.19-3.89,5.67-1.92,1.48-4.27,2.22-7.06,2.22-2.25,0-4.28-.51-6.07-1.53-1.79-1.02-3.18-2.46-4.18-4.33-1-1.87-1.5-4.02-1.5-6.46s.49-4.64,1.48-6.51,2.37-3.3,4.14-4.31c1.78-1,3.82-1.51,6.13-1.51s4.22,.49,5.98,1.46c1.76,.98,3.13,2.36,4.1,4.16,.97,1.8,1.46,3.86,1.46,6.18,0,.86-.06,1.64-.17,2.33Zm-5.96-4.05c-.03-1.55-.58-2.79-1.65-3.73-1.07-.93-2.38-1.4-3.93-1.4-1.47,0-2.7,.45-3.7,1.36-1,.91-1.61,2.16-1.84,3.77h11.12Z" style="fill: #151515;"/>
      <path d="M306.06,331.79c-1.52-.7-2.73-1.66-3.61-2.87-.89-1.21-1.37-2.54-1.46-4.01h5.96c.11,.92,.56,1.68,1.33,2.28,.77,.6,1.74,.9,2.9,.9s2.01-.23,2.64-.69c.63-.46,.95-1.05,.95-1.77,0-.78-.39-1.36-1.16-1.75-.78-.39-2.01-.81-3.7-1.27-1.75-.43-3.18-.88-4.29-1.34-1.11-.46-2.07-1.16-2.87-2.11-.8-.95-1.21-2.23-1.21-3.83,0-1.32,.37-2.53,1.12-3.62,.75-1.09,1.82-1.95,3.21-2.58,1.39-.63,3.04-.95,4.92-.95,2.79,0,5.02,.71,6.68,2.13,1.66,1.42,2.58,3.34,2.75,5.75h-5.66c-.08-.95-.47-1.7-1.16-2.26-.69-.56-1.61-.84-2.77-.84-1.07,0-1.9,.2-2.47,.6-.58,.4-.87,.96-.87,1.68,0,.8,.39,1.42,1.18,1.83,.79,.42,2.01,.84,3.68,1.27,1.69,.43,3.09,.88,4.18,1.34,1.1,.46,2.05,1.17,2.85,2.13,.8,.96,1.22,2.23,1.25,3.81,0,1.38-.37,2.61-1.12,3.71-.75,1.09-1.82,1.95-3.21,2.56-1.4,.62-3.02,.93-4.88,.93s-3.63-.35-5.16-1.06Z" style="fill: #151515;"/>
    </g>
    <g>
      <path d="M15.35,351h-.67l2.14-4.1h.38l-1.84,4.1Zm2.3,0h-.67l2.14-4.1h.38l-1.84,4.1Z" style="fill: #151515;"/>
      <path d="M25.01,346.91l-1.63,9.33c-.1,.58-.15,1.14-.15,1.67,0,1.31,.33,2.27,.99,2.88,.66,.61,1.58,.92,2.75,.92,1.37,0,2.53-.43,3.48-1.3,.95-.87,1.58-2.25,1.91-4.16l1.63-9.33h.42l-1.63,9.33c-.35,1.99-1.03,3.47-2.05,4.42s-2.29,1.43-3.81,1.43c-1.28,0-2.29-.34-3.02-1.02-.73-.68-1.09-1.73-1.09-3.14,0-.54,.05-1.1,.15-1.69l1.63-9.33h.42Z" style="fill: #151515;"/>
      <path d="M47.51,351.09c.7,.63,1.05,1.57,1.05,2.82,0,.4-.04,.83-.13,1.3l-1.17,6.72h-.4l1.17-6.77c.08-.46,.13-.87,.13-1.24,0-1.11-.3-1.95-.91-2.53-.61-.58-1.46-.86-2.54-.86-1.33,0-2.47,.43-3.43,1.3-.96,.87-1.6,2.16-1.91,3.86l-1.09,6.23h-.42l2.01-11.53h.42l-.52,3.01c.46-1.07,1.13-1.88,2.02-2.43,.89-.56,1.88-.83,2.98-.83s2.04,.31,2.74,.94Z" style="fill: #151515;"/>
      <path d="M55.76,350.41l-2.01,11.53h-.42l2.01-11.53h.42Zm-.03-3.07c-.09-.08-.14-.19-.14-.32,0-.21,.06-.38,.19-.51s.28-.19,.46-.19c.13,0,.23,.04,.32,.13,.09,.09,.14,.2,.14,.34,0,.2-.07,.36-.2,.49-.13,.13-.28,.19-.45,.19-.13,0-.23-.04-.32-.13Z" style="fill: #151515;"/>
      <path d="M64.08,347.28c-.56,.48-.93,1.25-1.11,2.32l-.15,.81h3.27l-.08,.45h-3.25l-1.93,11.08h-.42l1.93-11.08h-1.84l.08-.45h1.82l.15-.81c.21-1.17,.64-2.04,1.3-2.6,.66-.57,1.65-.85,2.97-.85l-.08,.43c-1.21,0-2.1,.24-2.66,.72Z" style="fill: #151515;"/>
      <path d="M70.32,350.41l2.7,10.91,6.07-10.91h.46l-9.38,16.95h-.5l2.99-5.38-2.81-11.57h.46Z" style="fill: #151515;"/>
      <path d="M84.79,350.41l-2.01,11.53h-.42l2.01-11.53h.42Zm-.03-3.07c-.09-.08-.14-.19-.14-.32,0-.21,.06-.38,.19-.51s.28-.19,.46-.19c.13,0,.23,.04,.32,.13,.09,.09,.14,.2,.14,.34,0,.2-.07,.36-.2,.49-.13,.13-.28,.19-.45,.19-.13,0-.23-.04-.32-.13Z" style="fill: #151515;"/>
      <path d="M98.6,351.09c.7,.63,1.05,1.57,1.05,2.82,0,.4-.04,.83-.13,1.3l-1.17,6.72h-.4l1.17-6.77c.08-.46,.13-.87,.13-1.24,0-1.11-.3-1.95-.91-2.53-.61-.58-1.46-.86-2.54-.86-1.33,0-2.47,.43-3.43,1.3-.96,.87-1.6,2.16-1.91,3.86l-1.09,6.23h-.42l2.01-11.53h.42l-.52,3.01c.46-1.07,1.13-1.88,2.02-2.43,.89-.56,1.88-.83,2.98-.83s2.04,.31,2.74,.94Z" style="fill: #151515;"/>
      <path d="M114.56,351.28c.78,.68,1.24,1.55,1.36,2.6l.61-3.48h.4l-2.07,11.95c-.18,1.07-.57,2-1.17,2.79-.6,.79-1.32,1.39-2.15,1.8s-1.69,.62-2.59,.62c-1.35,0-2.43-.34-3.21-1.01-.79-.68-1.25-1.59-1.39-2.74h.42c.13,1.04,.55,1.86,1.27,2.47,.72,.6,1.71,.91,2.98,.91,.87,0,1.68-.2,2.45-.6,.77-.4,1.42-.96,1.95-1.69,.53-.73,.88-1.57,1.05-2.54l.67-3.93c-.49,1.07-1.24,1.94-2.26,2.62-1.02,.68-2.18,1.02-3.48,1.02-1.42,0-2.55-.41-3.37-1.22-.82-.81-1.24-1.92-1.24-3.33,0-.44,.04-.9,.13-1.37,.21-1.21,.62-2.26,1.24-3.15s1.38-1.57,2.3-2.05,1.92-.71,2.99-.71c1.3,0,2.34,.34,3.12,1.02Zm1.07,3.67c0-1.32-.38-2.37-1.15-3.15s-1.8-1.16-3.1-1.16c-1.56,0-2.89,.49-3.98,1.48s-1.78,2.34-2.07,4.04c-.08,.47-.13,.91-.13,1.32,0,1.32,.37,2.36,1.12,3.09,.75,.74,1.79,1.11,3.13,1.11,.98,0,1.9-.23,2.75-.69,.86-.46,1.58-1.11,2.16-1.94,.58-.83,.97-1.8,1.16-2.89,.07-.36,.1-.76,.1-1.22Z" style="fill: #151515;"/>
      <path d="M139.17,350.82c.66,.38,1.16,.87,1.49,1.48,.33,.61,.49,1.29,.49,2.03,0,.19-.03,.48-.08,.88l-.08,.43c-.03,.23-.08,.47-.15,.73h-10.2c-.07,.47-.1,.86-.1,1.17,0,1.37,.4,2.4,1.19,3.11,.8,.7,1.8,1.06,3.02,1.06s2.4-.33,3.38-.99c.98-.66,1.66-1.55,2.04-2.68h.42c-.41,1.21-1.13,2.19-2.18,2.94s-2.29,1.12-3.73,1.12-2.48-.4-3.31-1.21c-.82-.8-1.24-1.92-1.24-3.34,0-.43,.04-.88,.13-1.37,.21-1.21,.62-2.26,1.25-3.16s1.39-1.58,2.29-2.05c.91-.47,1.88-.7,2.93-.7,.96,0,1.78,.19,2.44,.57Zm1.58,3.66c0-1.27-.39-2.22-1.17-2.87-.78-.65-1.75-.97-2.91-.97-.89,0-1.75,.2-2.58,.59s-1.54,.99-2.15,1.78-1.02,1.79-1.23,2.97h9.84c.13-.55,.19-1.05,.19-1.49Z" style="fill: #151515;"/>
      <path d="M149.4,356.13l2.66,5.81h-.5l-2.51-5.46-4.4,5.46h-.46l4.67-5.89-2.58-5.63h.5l2.43,5.31,4.29-5.31h.46l-4.56,5.72Z" style="fill: #151515;"/>
      <path d="M158.6,353.01c.62-.9,1.39-1.58,2.29-2.05,.91-.47,1.88-.7,2.93-.7,1.44,0,2.55,.37,3.34,1.12s1.17,1.73,1.14,2.93h-.42c.01-1.14-.35-2.03-1.1-2.69-.75-.65-1.76-.98-3.03-.98-.91,0-1.78,.2-2.61,.61s-1.55,1.02-2.16,1.85c-.61,.83-1.02,1.85-1.22,3.07-.08,.48-.13,.93-.13,1.34,0,1.37,.39,2.4,1.18,3.12s1.79,1.07,3,1.07,2.4-.33,3.38-.99c.98-.66,1.66-1.55,2.04-2.68h.42c-.41,1.21-1.13,2.19-2.18,2.94s-2.29,1.12-3.73,1.12-2.48-.4-3.31-1.21c-.82-.8-1.24-1.92-1.24-3.34,0-.43,.04-.88,.13-1.37,.21-1.21,.62-2.26,1.25-3.16Z" style="fill: #151515;"/>
      <path d="M182.03,350.82c.66,.38,1.16,.87,1.49,1.48,.33,.61,.49,1.29,.49,2.03,0,.19-.03,.48-.08,.88l-.08,.43c-.03,.23-.08,.47-.15,.73h-10.2c-.07,.47-.1,.86-.1,1.17,0,1.37,.4,2.4,1.19,3.11,.8,.7,1.8,1.06,3.02,1.06s2.4-.33,3.38-.99c.98-.66,1.66-1.55,2.04-2.68h.42c-.41,1.21-1.13,2.19-2.18,2.94s-2.29,1.12-3.73,1.12-2.48-.4-3.31-1.21c-.82-.8-1.24-1.92-1.24-3.34,0-.43,.04-.88,.13-1.37,.21-1.21,.62-2.26,1.25-3.16s1.39-1.58,2.29-2.05c.91-.47,1.88-.7,2.93-.7,.96,0,1.78,.19,2.44,.57Zm1.58,3.66c0-1.27-.39-2.22-1.17-2.87-.78-.65-1.75-.97-2.91-.97-.89,0-1.75,.2-2.58,.59s-1.54,.99-2.15,1.78-1.02,1.79-1.23,2.97h9.84c.13-.55,.19-1.05,.19-1.49Z" style="fill: #151515;"/>
      <path d="M191.57,346.14l-2.74,15.79h-.42l2.74-15.79h.42Z" style="fill: #151515;"/>
      <path d="M198.17,346.14l-2.74,15.79h-.42l2.74-15.79h.42Z" style="fill: #151515;"/>
      <path d="M210.99,350.82c.66,.38,1.16,.87,1.49,1.48,.33,.61,.49,1.29,.49,2.03,0,.19-.03,.48-.08,.88l-.08,.43c-.03,.23-.08,.47-.15,.73h-10.2c-.07,.47-.1,.86-.1,1.17,0,1.37,.4,2.4,1.19,3.11,.8,.7,1.8,1.06,3.02,1.06s2.4-.33,3.38-.99c.98-.66,1.66-1.55,2.04-2.68h.42c-.41,1.21-1.13,2.19-2.18,2.94s-2.29,1.12-3.73,1.12-2.48-.4-3.31-1.21c-.82-.8-1.24-1.92-1.24-3.34,0-.43,.04-.88,.13-1.37,.21-1.21,.62-2.26,1.25-3.16s1.39-1.58,2.29-2.05c.91-.47,1.88-.7,2.93-.7,.96,0,1.78,.19,2.44,.57Zm1.58,3.66c0-1.27-.39-2.22-1.17-2.87-.78-.65-1.75-.97-2.91-.97-.89,0-1.75,.2-2.58,.59s-1.54,.99-2.15,1.78-1.02,1.79-1.23,2.97h9.84c.13-.55,.19-1.05,.19-1.49Z" style="fill: #151515;"/>
      <path d="M227.02,351.09c.7,.63,1.05,1.57,1.05,2.82,0,.4-.04,.83-.13,1.3l-1.17,6.72h-.4l1.17-6.77c.08-.46,.13-.87,.13-1.24,0-1.11-.3-1.95-.91-2.53-.61-.58-1.46-.86-2.54-.86-1.33,0-2.47,.43-3.43,1.3s-1.6,2.16-1.91,3.86l-1.09,6.23h-.42l2.01-11.53h.42l-.52,3.01c.46-1.07,1.13-1.88,2.02-2.43,.89-.56,1.88-.83,2.98-.83s2.04,.31,2.74,.94Z" style="fill: #151515;"/>
      <path d="M234.57,353.01c.62-.9,1.38-1.58,2.29-2.05,.91-.47,1.88-.7,2.93-.7,1.44,0,2.55,.37,3.34,1.12,.79,.75,1.17,1.73,1.14,2.93h-.42c.01-1.14-.35-2.03-1.1-2.69-.75-.65-1.76-.98-3.03-.98-.91,0-1.78,.2-2.61,.61-.83,.41-1.55,1.02-2.16,1.85-.61,.83-1.02,1.85-1.22,3.07-.08,.48-.13,.93-.13,1.34,0,1.37,.39,2.4,1.18,3.12,.79,.71,1.79,1.07,3,1.07s2.4-.33,3.38-.99c.98-.66,1.66-1.55,2.04-2.68h.42c-.4,1.21-1.13,2.19-2.18,2.94s-2.29,1.12-3.73,1.12-2.48-.4-3.31-1.21c-.82-.8-1.24-1.92-1.24-3.34,0-.43,.04-.88,.12-1.37,.21-1.21,.62-2.26,1.25-3.16Z" style="fill: #151515;"/>
      <path d="M258,350.82c.66,.38,1.16,.87,1.49,1.48,.33,.61,.49,1.29,.49,2.03,0,.19-.03,.48-.08,.88l-.08,.43c-.03,.23-.08,.47-.15,.73h-10.2c-.07,.47-.1,.86-.1,1.17,0,1.37,.4,2.4,1.19,3.11,.8,.7,1.8,1.06,3.02,1.06s2.4-.33,3.38-.99c.98-.66,1.66-1.55,2.04-2.68h.42c-.41,1.21-1.13,2.19-2.18,2.94s-2.29,1.12-3.73,1.12-2.49-.4-3.31-1.21c-.82-.8-1.24-1.92-1.24-3.34,0-.43,.04-.88,.12-1.37,.21-1.21,.62-2.26,1.25-3.16s1.39-1.58,2.29-2.05,1.88-.7,2.93-.7c.96,0,1.78,.19,2.44,.57Zm1.58,3.66c0-1.27-.39-2.22-1.17-2.87-.78-.65-1.75-.97-2.91-.97-.89,0-1.75,.2-2.58,.59s-1.54,.99-2.15,1.78c-.61,.8-1.01,1.79-1.22,2.97h9.84c.12-.55,.19-1.05,.19-1.49Z" style="fill: #151515;"/>
      <path d="M275.49,350.41l-2.01,11.53h-.42l2.01-11.53h.42Zm-.03-3.07c-.09-.08-.14-.19-.14-.32,0-.21,.06-.38,.19-.51s.28-.19,.46-.19c.12,0,.23,.04,.32,.13,.09,.09,.14,.2,.14,.34,0,.2-.07,.36-.2,.49-.13,.13-.28,.19-.45,.19-.13,0-.23-.04-.33-.13Z" style="fill: #151515;"/>
      <path d="M289.31,351.09c.7,.63,1.05,1.57,1.05,2.82,0,.4-.04,.83-.13,1.3l-1.17,6.72h-.4l1.17-6.77c.08-.46,.12-.87,.12-1.24,0-1.11-.3-1.95-.91-2.53-.61-.58-1.46-.86-2.54-.86-1.33,0-2.47,.43-3.43,1.3-.96,.87-1.6,2.16-1.91,3.86l-1.09,6.23h-.42l2.01-11.53h.42l-.52,3.01c.46-1.07,1.13-1.88,2.02-2.43,.89-.56,1.88-.83,2.98-.83s2.04,.31,2.74,.94Z" style="fill: #151515;"/>
      <path d="M313.21,350.82c.66,.38,1.16,.87,1.49,1.48,.33,.61,.49,1.29,.49,2.03,0,.19-.03,.48-.08,.88l-.08,.43c-.03,.23-.08,.47-.15,.73h-10.2c-.07,.47-.1,.86-.1,1.17,0,1.37,.4,2.4,1.19,3.11,.8,.7,1.8,1.06,3.02,1.06s2.4-.33,3.38-.99c.98-.66,1.66-1.55,2.04-2.68h.42c-.41,1.21-1.13,2.19-2.18,2.94s-2.29,1.12-3.73,1.12-2.49-.4-3.31-1.21c-.82-.8-1.24-1.92-1.24-3.34,0-.43,.04-.88,.12-1.37,.21-1.21,.62-2.26,1.25-3.16s1.39-1.58,2.29-2.05,1.88-.7,2.93-.7c.96,0,1.78,.19,2.44,.57Zm1.58,3.66c0-1.27-.39-2.22-1.17-2.87-.78-.65-1.75-.97-2.91-.97-.89,0-1.75,.2-2.58,.59s-1.54,.99-2.15,1.78c-.61,.8-1.01,1.79-1.22,2.97h9.84c.12-.55,.19-1.05,.19-1.49Z" style="fill: #151515;"/>
      <path d="M323.36,361.19l6.37-10.78h.46l-6.83,11.53h-.31l-2.81-11.53h.46l2.66,10.78Z" style="fill: #151515;"/>
      <path d="M342.38,350.82c.66,.38,1.16,.87,1.49,1.48,.33,.61,.49,1.29,.49,2.03,0,.19-.03,.48-.08,.88l-.08,.43c-.03,.23-.08,.47-.15,.73h-10.2c-.07,.47-.1,.86-.1,1.17,0,1.37,.4,2.4,1.19,3.11,.8,.7,1.8,1.06,3.02,1.06s2.4-.33,3.38-.99c.98-.66,1.66-1.55,2.04-2.68h.42c-.41,1.21-1.13,2.19-2.18,2.94s-2.29,1.12-3.73,1.12-2.49-.4-3.31-1.21c-.82-.8-1.24-1.92-1.24-3.34,0-.43,.04-.88,.12-1.37,.21-1.21,.62-2.26,1.25-3.16s1.39-1.58,2.29-2.05,1.88-.7,2.93-.7c.96,0,1.78,.19,2.44,.57Zm1.58,3.66c0-1.27-.39-2.22-1.17-2.87-.78-.65-1.75-.97-2.91-.97-.89,0-1.75,.2-2.58,.59s-1.54,.99-2.15,1.78c-.61,.8-1.01,1.79-1.22,2.97h9.84c.12-.55,.19-1.05,.19-1.49Z" style="fill: #151515;"/>
      <path d="M355.69,350.15l-.08,.47h-.19c-1.16,0-2.21,.34-3.16,1.01s-1.57,1.77-1.86,3.28l-1.21,7.02h-.42l2.01-11.53h.42l-.48,2.82c.78-2.05,2.44-3.07,4.98-3.07Z" style="fill: #151515;"/>
      <path d="M359.56,350.41l2.7,10.91,6.07-10.91h.46l-9.38,16.95h-.5l2.99-5.38-2.81-11.57h.46Z" style="fill: #151515;"/>
      <path d="M384.37,351.28c1.01-.68,2.16-1.02,3.46-1.02,1.42,0,2.55,.41,3.37,1.22,.82,.81,1.24,1.92,1.24,3.33,0,.44-.04,.9-.12,1.37-.21,1.21-.62,2.26-1.24,3.15-.62,.89-1.38,1.57-2.3,2.05s-1.92,.71-2.99,.71c-1.3,0-2.33-.34-3.11-1.02-.77-.68-1.23-1.57-1.37-2.65l-.61,3.52h-.4l2.74-15.79h.4l-1.34,7.79c.52-1.08,1.28-1.96,2.28-2.65Zm7.64,3.56c0-1.32-.37-2.36-1.12-3.1-.75-.74-1.79-1.11-3.13-1.11-.98,0-1.9,.23-2.75,.69-.86,.46-1.58,1.11-2.16,1.94-.58,.83-.97,1.8-1.16,2.89-.07,.36-.1,.76-.1,1.22,0,1.32,.38,2.37,1.15,3.15,.77,.78,1.8,1.16,3.1,1.16,1.56,0,2.89-.5,3.98-1.48,1.09-.99,1.78-2.34,2.07-4.04,.08-.47,.12-.91,.12-1.32Z" style="fill: #151515;"/>
      <path d="M398.06,350.41l2.7,10.91,6.07-10.91h.46l-9.38,16.95h-.5l2.99-5.38-2.81-11.57h.46Z" style="fill: #151515;"/>
      <path d="M411.53,358.9c-.07,.43-.1,.77-.1,1.02,0,.6,.16,1.01,.47,1.24,.31,.23,.83,.34,1.56,.34h1.19l-.08,.43h-1.24c-.81,0-1.4-.15-1.77-.46-.37-.31-.55-.81-.55-1.5,0-.26,.04-.61,.11-1.07l1.4-8.07h-1.84l.08-.43h1.84l.5-2.95h.42l-.5,2.95h3.56l-.08,.43h-3.56l-1.4,8.07Z" style="fill: #151515;"/>
      <path d="M429.19,350.82c.66,.38,1.16,.87,1.49,1.48,.33,.61,.49,1.29,.49,2.03,0,.19-.03,.48-.08,.88l-.08,.43c-.03,.23-.08,.47-.15,.73h-10.2c-.07,.47-.1,.86-.1,1.17,0,1.37,.4,2.4,1.19,3.11,.8,.7,1.8,1.06,3.02,1.06s2.4-.33,3.38-.99c.98-.66,1.66-1.55,2.04-2.68h.42c-.41,1.21-1.13,2.19-2.18,2.94s-2.29,1.12-3.73,1.12-2.49-.4-3.31-1.21c-.82-.8-1.24-1.92-1.24-3.34,0-.43,.04-.88,.12-1.37,.21-1.21,.62-2.26,1.25-3.16s1.39-1.58,2.29-2.05,1.88-.7,2.93-.7c.96,0,1.78,.19,2.44,.57Zm1.58,3.66c0-1.27-.39-2.22-1.17-2.87-.78-.65-1.75-.97-2.91-.97-.89,0-1.75,.2-2.58,.59s-1.54,.99-2.15,1.78c-.61,.8-1.01,1.79-1.22,2.97h9.84c.12-.55,.19-1.05,.19-1.49Z" style="fill: #151515;"/>
      <path d="M438.16,346.91h.67l-2.14,4.1h-.38l1.84-4.1Zm2.3,0h.67l-2.14,4.1h-.38l1.84-4.1Z" style="fill: #151515;"/>
    </g>
  </g>
  <g id="icon">
    <g>
      <polygon points="285.21 233.96 236.57 283.54 187.93 233.96 193.53 228.25 236.57 184.37 279.62 228.25 285.21 233.96" style="fill: #b7241c;"/>
      <polygon points="254.67 233.96 221.44 267.83 188.21 233.96 192.03 230.06 221.44 200.09 250.84 230.06 254.67 233.96" style="fill: #ce3936; opacity: .22;"/>
      <polygon points="279.5 228.25 285.1 233.96 236.46 283.54 279.5 228.25" style="fill: #660808; opacity: .25;"/>
    </g>
    <g>
      <polygon points="285.64 60.85 236.57 110.87 187.5 60.85 236.57 10.83 285.64 60.85" style="fill: #b7241c;"/>
      <polygon points="250.42 60.85 218.96 92.92 187.5 60.85 218.96 28.78 250.42 60.85" style="fill: #ce3936; opacity: .22;"/>
      <polygon points="279.79 66.48 236.24 10.83 285.32 60.85 279.79 66.48" style="fill: #660808; opacity: .25;"/>
    </g>
    <g>
      <polygon points="204.97 188.74 224.65 163.45 204.97 183.51 204.97 188.74" style="fill: #b7241c;"/>
      <path d="M181.61,193.87c1.52,0,2.77-1.27,2.77-2.82s-1.24-2.82-2.77-2.82-2.77,1.27-2.77,2.82,1.24,2.82,2.77,2.82Z" style="fill: #b7241c;"/>
      <path d="M199.36,181.15l30.33-30.91c-.4-.99-.63-2.08-.63-3.22,0-2.69,1.23-5.1,3.15-6.66l-54.58-69.75,5.91-6.03,81.22,82.79h0s-81.22-82.8-81.22-82.8l-5.91,6.03-20.45,20.84-54.86,55.92h0s54.86-55.92,54.86-55.92l11.3,11.52h0s0,0,0,0h0c0-4.71,3.76-8.54,8.37-8.54s8.36,3.83,8.36,8.53-3.75,8.53-8.36,8.53h0s0,0,0,0h0s26.49,27.01,26.49,27.01c0,0,0,0,0,0,.08,0,.17,0,.25,0,4.61,0,8.37,3.83,8.37,8.53,0,.09,0,.17,0,.26h0s.09,.1,.09,.1l-.09,.09h0s0,.01,0,.01c-.23,4.35-3.65,7.84-7.92,8.07h0s0,0,0,0l-46.84,47.74,4.35,4.43,12.6-12.84c-.58-1.15-.91-2.46-.91-3.84,0-4.7,3.76-8.53,8.37-8.53s8.37,3.83,8.37,8.53-3.76,8.53-8.37,8.53c-1.21,0-2.37-.27-3.41-.75l-12.7,12.94,7.53,7.67,26.32-26.83v-11.46Z" style="fill: #b7241c;"/>
      <path d="M235.72,144.83c-.63,.52-1.05,1.3-1.05,2.19s.42,1.68,1.06,2.2l1.71-2.19-1.72-2.19Z" style="fill: #b7241c;"/>
      <path d="M176.87,105.78c1.52,0,2.76-1.27,2.76-2.82s-1.23-2.82-2.76-2.82-2.77,1.27-2.77,2.82,1.23,2.82,2.77,2.82Z" style="fill: #b7241c;"/>
      <polygon points="177 223.48 177.51 224 177.52 224 181.48 218.91 177 223.48" style="fill: #b7241c;"/>
      <polygon points="183.56 230.16 177.52 224 177.51 224 183.56 230.17 264.78 147.38 264.78 147.38 183.56 230.16" style="fill: #660808; opacity: .25;"/>
      <path d="M240.2,147.02c0-1.55-1.24-2.82-2.77-2.82-.65,0-1.24,.24-1.72,.63l1.72,2.19-1.71,2.19c.47,.38,1.06,.62,1.71,.62,1.52,0,2.77-1.27,2.77-2.82Z" style="fill: #b7241c;"/>
      <path d="M240.2,147.02c0-1.55-1.24-2.82-2.77-2.82-.65,0-1.24,.24-1.72,.63l1.72,2.19-1.71,2.19c.47,.38,1.06,.62,1.71,.62,1.52,0,2.77-1.27,2.77-2.82Z" style="fill: #660808; opacity: .25;"/>
      <path d="M264.78,147.38l-81.22-82.79-5.91,6.03,54.58,69.75c1.43-1.17,3.24-1.87,5.22-1.87,4.61,0,8.37,3.83,8.37,8.53s-3.76,8.53-8.37,8.53c-1.46,0-2.82-.38-4.01-1.05l-8.78,8.95-19.68,25.28v6.23l-23.49,23.94-3.97,5.09,6.04,6.16,81.22-82.78Z" style="fill: #b7241c;"/>
      <path d="M264.78,147.38l-81.22-82.79-5.91,6.03,54.58,69.75c1.43-1.17,3.24-1.87,5.22-1.87,4.61,0,8.37,3.83,8.37,8.53s-3.76,8.53-8.37,8.53c-1.46,0-2.82-.38-4.01-1.05l-8.78,8.95-19.68,25.28v6.23l-23.49,23.94-3.97,5.09,6.04,6.16,81.22-82.78Z" style="fill: #660808; opacity: .25;"/>
      <polygon points="149.18 195.13 145.22 191.09 134.73 180.4 130.77 176.36 119.85 165.22 115.88 161.18 102.34 147.38 102.33 147.38 115.88 161.19 119.85 165.22 130.77 176.36 134.73 180.4 145.22 191.1 149.18 195.13 157.2 203.29 157.2 203.29 157.2 203.29 149.18 195.13" style="fill: #ce3936; opacity: .22;"/>
      <path d="M171.3,141.63c1.52,0,2.77-1.27,2.77-2.82s-1.24-2.82-2.77-2.82-2.77,1.27-2.77,2.82,1.24,2.82,2.77,2.82Z" style="fill: #b7241c;"/>
      <path d="M171.3,141.63c1.52,0,2.77-1.27,2.77-2.82s-1.24-2.82-2.77-2.82-2.77,1.27-2.77,2.82,1.24,2.82,2.77,2.82Z" style="fill: #ce3936; opacity: .22;"/>
      <polygon points="211.97 147.47 211.97 147.47 211.96 147.47 211.97 147.47" style="fill: #b7241c;"/>
      <polygon points="211.97 147.47 211.97 147.47 211.96 147.47 211.97 147.47" style="fill: #ce3936; opacity: .22;"/>
      <path d="M204.04,155.55h0s0,0,0,0h0c-.14,0-.29,0-.43,0-1.04,0-2.04-.2-2.95-.56l-20.92,21.33h-12.1l-18.45,18.81,8.01,8.16h0s46.84-47.74,46.84-47.74h0Z" style="fill: #b7241c;"/>
      <path d="M204.04,155.55h0s0,0,0,0h0c-.14,0-.29,0-.43,0-1.04,0-2.04-.2-2.95-.56l-20.92,21.33h-12.1l-18.45,18.81,8.01,8.16h0s46.84-47.74,46.84-47.74h0Z" style="fill: #ce3936; opacity: .22;"/>
      <polygon points="212.06 147.38 211.97 147.28 211.97 147.46 212.06 147.38" style="fill: #b7241c;"/>
      <polygon points="212.06 147.38 211.97 147.28 211.97 147.46 212.06 147.38" style="fill: #ce3936; opacity: .22;"/>
      <path d="M153.78,129.93v9.37l-17.35,17.68h-8.5l-8.08,8.24,10.92,11.14,33.07-33.71c-.58-1.15-.91-2.46-.91-3.84,0-4.7,3.76-8.53,8.37-8.53s8.37,3.83,8.37,8.53-3.76,8.53-8.37,8.53c-1.21,0-2.37-.28-3.41-.75l-33.16,33.8,10.49,10.69,20.08-20.48h12.1l18.96-19.32c-.71-1.26-1.13-2.71-1.13-4.27,0-4.62,3.61-8.39,8.11-8.52l-26.49-27h0c-1.45,0-2.79-.39-3.97-1.04l-19.1,19.47Z" style="fill: #b7241c;"/>
      <path d="M153.78,129.93v9.37l-17.35,17.68h-8.5l-8.08,8.24,10.92,11.14,33.07-33.71c-.58-1.15-.91-2.46-.91-3.84,0-4.7,3.76-8.53,8.37-8.53s8.37,3.83,8.37,8.53-3.76,8.53-8.37,8.53c-1.21,0-2.37-.28-3.41-.75l-33.16,33.8,10.49,10.69,20.08-20.48h12.1l18.96-19.32c-.71-1.26-1.13-2.71-1.13-4.27,0-4.62,3.61-8.39,8.11-8.52l-26.49-27h0c-1.45,0-2.79-.39-3.97-1.04l-19.1,19.47Z" style="fill: #ce3936; opacity: .22;"/>
      <path d="M203.6,149.84c1.52,0,2.77-1.27,2.77-2.82s-1.24-2.82-2.77-2.82-2.77,1.27-2.77,2.82,1.24,2.82,2.77,2.82Z" style="fill: #b7241c;"/>
      <path d="M203.6,149.84c1.52,0,2.77-1.27,2.77-2.82s-1.24-2.82-2.77-2.82-2.77,1.27-2.77,2.82,1.24,2.82,2.77,2.82Z" style="fill: #ce3936; opacity: .22;"/>
      <path d="M125.6,151.27h8.51l14.06-14.34v-9.37l20.95-21.36c-.4-1-.62-2.08-.63-3.22h0s-11.3-11.52-11.3-11.52l-54.86,55.92,13.54,13.8,9.72-9.91Z" style="fill: #b7241c;"/>
      <path d="M125.6,151.27h8.51l14.06-14.34v-9.37l20.95-21.36c-.4-1-.62-2.08-.63-3.22h0s-11.3-11.52-11.3-11.52l-54.86,55.92,13.54,13.8,9.72-9.91Z" style="fill: #ce3936; opacity: .22;"/>
      <polygon points="204.97 194.97 204.97 188.74 181.48 218.91 204.97 194.97" style="fill: none;"/>
      <path d="M171.3,147.35c4.61,0,8.37-3.83,8.37-8.53s-3.76-8.53-8.37-8.53-8.37,3.83-8.37,8.53c0,1.38,.33,2.69,.91,3.84l-33.07,33.71,3.96,4.04,33.16-33.8c1.04,.48,2.2,.75,3.41,.75Zm0-11.35c1.52,0,2.77,1.27,2.77,2.82s-1.24,2.82-2.77,2.82-2.77-1.27-2.77-2.82,1.24-2.82,2.77-2.82Z" style="fill: none;"/>
      <path d="M181.61,199.58c4.61,0,8.37-3.83,8.37-8.53s-3.76-8.53-8.37-8.53-8.37,3.83-8.37,8.53c0,1.38,.33,2.69,.91,3.84l-12.6,12.84,3.96,4.05,12.7-12.94c1.04,.49,2.2,.75,3.41,.75Zm0-11.35c1.52,0,2.77,1.27,2.77,2.82s-1.24,2.82-2.77,2.82-2.77-1.27-2.77-2.82,1.24-2.82,2.77-2.82Z" style="fill: none;"/>
      <path d="M211.97,147.28h0c0-.09,0-.18,0-.26,0-4.7-3.76-8.53-8.37-8.53-.08,0-.17,0-.25,0,0,0,0,0,0,0h0" style="fill: none;"/>
      <path d="M203.35,138.5h0c-4.5,.13-8.11,3.9-8.11,8.52,0,1.55,.42,3.01,1.13,4.27l-18.96,19.32h-12.1l-20.08,20.48,3.96,4.04,18.45-18.81h12.1l20.92-21.33c.92,.36,1.91,.56,2.95,.56,.14,0,.29,0,.43,0h0s0,0,0,0m7.92-8.07s0,0,0,0h0v-.19m-8.36-3.08c1.52,0,2.77,1.27,2.77,2.82s-1.24,2.82-2.77,2.82-2.77-1.27-2.77-2.82,1.24-2.82,2.77-2.82Z" style="fill: none;"/>
      <path d="M176.86,111.49h0c4.61,0,8.36-3.83,8.36-8.53s-3.75-8.53-8.36-8.53-8.37,3.83-8.37,8.53h0s0,.01,0,.01l8.36,8.52s0,0,0,0Zm0-11.35c1.52,0,2.76,1.27,2.76,2.82s-1.23,2.82-2.76,2.82-2.77-1.27-2.77-2.82,1.23-2.82,2.77-2.82Z" style="fill: none;"/>
      <path d="M148.17,127.56v9.37l-14.06,14.34h-8.51l-9.72,9.91,3.97,4.04,8.08-8.24h8.5l17.35-17.68v-9.37l19.1-19.47c1.19,.66,2.53,1.04,3.97,1.04l-8.36-8.52c0,1.14,.22,2.22,.63,3.22l-20.95,21.36Z" style="fill: none;"/>
    </g>
  </g>
</svg>