<?xml version="1.0" encoding="UTF-8"?>
<svg id="OBJECTS" xmlns="http://www.w3.org/2000/svg" viewBox="0 0 437.3 196.49">
  <g>
    <g id="icon">
      <g>
        <polygon points="124.86 152.8 94.28 183.97 63.7 152.8 67.22 149.21 94.28 121.63 121.34 149.21 124.86 152.8" style="fill: #b7241c;"/>
        <polygon points="105.65 152.8 84.77 174.09 63.88 152.8 66.28 150.35 84.77 131.51 103.25 150.35 105.65 152.8" style="fill: #ce3936; opacity: .22;"/>
        <polygon points="121.27 149.21 124.79 152.8 94.21 183.97 121.27 149.21" style="fill: #660808; opacity: .25;"/>
      </g>
      <g>
        <polygon points="125.13 43.97 94.28 75.42 63.43 43.97 94.28 12.52 125.13 43.97" style="fill: #b7241c;"/>
        <polygon points="102.98 43.97 83.21 64.13 63.43 43.97 83.21 23.81 102.98 43.97" style="fill: #ce3936; opacity: .22;"/>
        <polygon points="121.45 47.51 94.07 12.52 124.92 43.97 121.45 47.51" style="fill: #660808; opacity: .25;"/>
      </g>
      <g>
        <polygon points="74.41 124.37 86.78 108.48 74.41 121.09 74.41 124.37" style="fill: #b7241c;"/>
        <path d="M59.73,127.6c.96,0,1.74-.8,1.74-1.77s-.78-1.77-1.74-1.77-1.74,.8-1.74,1.77,.78,1.77,1.74,1.77Z" style="fill: #b7241c;"/>
        <path d="M70.89,119.6l19.07-19.43c-.25-.62-.39-1.31-.39-2.02,0-1.69,.78-3.2,1.98-4.19L57.23,50.11l3.72-3.79,51.06,52.05h0S60.95,46.31,60.95,46.31l-3.72,3.79-12.86,13.1L9.89,98.37h0S44.38,63.21,44.38,63.21l7.11,7.24h0s0,0,0,0h0c0-2.96,2.36-5.37,5.26-5.37s5.26,2.41,5.26,5.36-2.36,5.36-5.26,5.36h0s0,0,0,0h0s16.65,16.98,16.65,16.98c0,0,0,0,0,0,.05,0,.11,0,.16,0,2.9,0,5.26,2.41,5.26,5.36,0,.05,0,.11,0,.16h0s.06,.06,.06,.06l-.06,.05h0s0,0,0,0c-.14,2.73-2.3,4.93-4.98,5.07h0s0,0,0,0l-29.45,30.02,2.74,2.79,7.92-8.07c-.36-.72-.57-1.54-.57-2.41,0-2.96,2.36-5.36,5.26-5.36s5.26,2.41,5.26,5.36-2.36,5.36-5.26,5.36c-.76,0-1.49-.17-2.14-.47l-7.98,8.14,4.73,4.82,16.55-16.87v-7.2Z" style="fill: #b7241c;"/>
        <path d="M93.74,96.77c-.4,.33-.66,.82-.66,1.38s.26,1.06,.66,1.38l1.07-1.38-1.08-1.38Z" style="fill: #b7241c;"/>
        <path d="M56.74,72.22c.96,0,1.73-.8,1.73-1.77s-.78-1.77-1.73-1.77-1.74,.8-1.74,1.77,.78,1.77,1.74,1.77Z" style="fill: #b7241c;"/>
        <polygon points="56.83 146.21 57.15 146.54 57.15 146.54 59.64 143.34 56.83 146.21" style="fill: #b7241c;"/>
        <polygon points="60.95 150.41 57.15 146.54 57.15 146.54 60.95 150.42 112.01 98.37 112.01 98.37 60.95 150.41" style="fill: #660808; opacity: .25;"/>
        <path d="M96.56,98.14c0-.98-.78-1.77-1.74-1.77-.41,0-.78,.15-1.08,.4l1.08,1.38-1.07,1.38c.3,.24,.67,.39,1.07,.39,.96,0,1.74-.8,1.74-1.77Z" style="fill: #b7241c;"/>
        <path d="M96.56,98.14c0-.98-.78-1.77-1.74-1.77-.41,0-.78,.15-1.08,.4l1.08,1.38-1.07,1.38c.3,.24,.67,.39,1.07,.39,.96,0,1.74-.8,1.74-1.77Z" style="fill: #660808; opacity: .25;"/>
        <path d="M112.01,98.37L60.95,46.32l-3.72,3.79,34.31,43.85c.9-.73,2.04-1.18,3.28-1.18,2.9,0,5.26,2.41,5.26,5.36s-2.36,5.36-5.26,5.36c-.92,0-1.77-.24-2.52-.66l-5.52,5.63-12.37,15.9v3.92l-14.77,15.05-2.49,3.2,3.8,3.87,51.06-52.05Z" style="fill: #b7241c;"/>
        <path d="M112.01,98.37L60.95,46.32l-3.72,3.79,34.31,43.85c.9-.73,2.04-1.18,3.28-1.18,2.9,0,5.26,2.41,5.26,5.36s-2.36,5.36-5.26,5.36c-.92,0-1.77-.24-2.52-.66l-5.52,5.63-12.37,15.9v3.92l-14.77,15.05-2.49,3.2,3.8,3.87,51.06-52.05Z" style="fill: #660808; opacity: .25;"/>
        <polygon points="39.34 128.39 36.85 125.85 30.25 119.13 27.76 116.59 20.9 109.59 18.4 107.05 9.89 98.37 9.89 98.37 18.4 107.05 20.9 109.59 27.76 116.59 30.25 119.13 36.85 125.85 39.34 128.39 44.38 133.52 44.38 133.52 44.38 133.52 39.34 128.39" style="fill: #ce3936; opacity: .22;"/>
        <path d="M53.24,94.76c.96,0,1.74-.8,1.74-1.77s-.78-1.77-1.74-1.77-1.74,.8-1.74,1.77,.78,1.77,1.74,1.77Z" style="fill: #b7241c;"/>
        <path d="M53.24,94.76c.96,0,1.74-.8,1.74-1.77s-.78-1.77-1.74-1.77-1.74,.8-1.74,1.77,.78,1.77,1.74,1.77Z" style="fill: #ce3936; opacity: .22;"/>
        <polygon points="78.81 98.43 78.81 98.43 78.81 98.43 78.81 98.43" style="fill: #b7241c;"/>
        <polygon points="78.81 98.43 78.81 98.43 78.81 98.43 78.81 98.43" style="fill: #ce3936; opacity: .22;"/>
        <path d="M73.83,103.51h0s0,0,0,0h0c-.09,0-.18,0-.27,0-.65,0-1.28-.13-1.86-.35l-13.16,13.41h-7.61l-11.6,11.82,5.04,5.13h0s29.45-30.01,29.45-30.01h0Z" style="fill: #b7241c;"/>
        <path d="M73.83,103.51h0s0,0,0,0h0c-.09,0-.18,0-.27,0-.65,0-1.28-.13-1.86-.35l-13.16,13.41h-7.61l-11.6,11.82,5.04,5.13h0s29.45-30.01,29.45-30.01h0Z" style="fill: #ce3936; opacity: .22;"/>
        <polygon points="78.87 98.37 78.81 98.31 78.81 98.42 78.87 98.37" style="fill: #b7241c;"/>
        <polygon points="78.87 98.37 78.81 98.31 78.81 98.42 78.87 98.37" style="fill: #ce3936; opacity: .22;"/>
        <path d="M42.23,87.4v5.89l-10.91,11.12h-5.34l-5.08,5.18,6.87,7,20.79-21.19c-.36-.72-.57-1.54-.57-2.41,0-2.96,2.36-5.36,5.26-5.36s5.26,2.41,5.26,5.36-2.36,5.36-5.26,5.36c-.76,0-1.49-.17-2.14-.47l-20.85,21.25,6.6,6.72,12.63-12.88h7.61l11.92-12.15c-.45-.79-.71-1.71-.71-2.68,0-2.9,2.27-5.27,5.1-5.36l-16.65-16.98h0c-.91,0-1.75-.24-2.5-.66l-12.01,12.24Z" style="fill: #b7241c;"/>
        <path d="M42.23,87.4v5.89l-10.91,11.12h-5.34l-5.08,5.18,6.87,7,20.79-21.19c-.36-.72-.57-1.54-.57-2.41,0-2.96,2.36-5.36,5.26-5.36s5.26,2.41,5.26,5.36-2.36,5.36-5.26,5.36c-.76,0-1.49-.17-2.14-.47l-20.85,21.25,6.6,6.72,12.63-12.88h7.61l11.92-12.15c-.45-.79-.71-1.71-.71-2.68,0-2.9,2.27-5.27,5.1-5.36l-16.65-16.98h0c-.91,0-1.75-.24-2.5-.66l-12.01,12.24Z" style="fill: #ce3936; opacity: .22;"/>
        <path d="M73.55,99.92c.96,0,1.74-.8,1.74-1.77s-.78-1.77-1.74-1.77-1.74,.8-1.74,1.77,.78,1.77,1.74,1.77Z" style="fill: #b7241c;"/>
        <path d="M73.55,99.92c.96,0,1.74-.8,1.74-1.77s-.78-1.77-1.74-1.77-1.74,.8-1.74,1.77,.78,1.77,1.74,1.77Z" style="fill: #ce3936; opacity: .22;"/>
        <path d="M24.51,100.81h5.35l8.84-9.02v-5.89l13.17-13.43c-.25-.63-.39-1.31-.39-2.03h0s-7.11-7.24-7.11-7.24L9.89,98.37l8.51,8.68,6.11-6.23Z" style="fill: #b7241c;"/>
        <path d="M24.51,100.81h5.35l8.84-9.02v-5.89l13.17-13.43c-.25-.63-.39-1.31-.39-2.03h0s-7.11-7.24-7.11-7.24L9.89,98.37l8.51,8.68,6.11-6.23Z" style="fill: #ce3936; opacity: .22;"/>
        <path d="M74.41,124.37v-3.29l12.37-12.61,6.97-8.95c-.4-.33-.66-.82-.66-1.38s.26-1.05,.66-1.38l-2.2-2.81c-1.21,.98-1.98,2.49-1.98,4.19,0,.72,.14,1.4,.39,2.02l-19.07,19.43v7.2l-16.55,16.87,2.49,2.54,2.82-2.87,14.77-18.97Z" style="fill: none;"/>
        <polygon points="74.41 128.29 74.41 124.37 59.64 143.34 74.41 128.29" style="fill: none;"/>
        <path d="M94.82,96.37c.96,0,1.74,.8,1.74,1.77s-.78,1.77-1.74,1.77c-.41,0-.78-.15-1.07-.39l-6.97,8.95,5.52-5.63c.75,.42,1.6,.66,2.52,.66,2.9,0,5.26-2.41,5.26-5.36s-2.36-5.36-5.26-5.36c-1.24,0-2.38,.44-3.28,1.18l2.2,2.81c.3-.24,.67-.4,1.08-.4Z" style="fill: none;"/>
        <path d="M53.24,98.35c2.9,0,5.26-2.41,5.26-5.36s-2.36-5.36-5.26-5.36-5.26,2.41-5.26,5.36c0,.87,.21,1.69,.57,2.41l-20.79,21.19,2.49,2.54,20.85-21.25c.65,.3,1.38,.47,2.14,.47Zm0-7.14c.96,0,1.74,.8,1.74,1.77s-.78,1.77-1.74,1.77-1.74-.8-1.74-1.77,.78-1.77,1.74-1.77Z" style="fill: none;"/>
        <path d="M59.73,131.19c2.9,0,5.26-2.41,5.26-5.36s-2.36-5.36-5.26-5.36-5.26,2.41-5.26,5.36c0,.87,.21,1.69,.57,2.41l-7.92,8.07,2.49,2.54,7.98-8.14c.65,.31,1.38,.47,2.14,.47Zm0-7.14c.96,0,1.74,.8,1.74,1.77s-.78,1.77-1.74,1.77-1.74-.8-1.74-1.77,.78-1.77,1.74-1.77Z" style="fill: none;"/>
        <path d="M78.81,98.31h0c0-.06,0-.11,0-.16,0-2.96-2.36-5.36-5.26-5.36-.05,0-.11,0-.16,0,0,0,0,0,0,0h0s5.41,5.52,5.41,5.52Z" style="fill: none;"/>
        <path d="M57.08,112.97h-7.61l-12.63,12.88,2.49,2.54,11.6-11.82h7.61l13.16-13.41c.58,.23,1.2,.35,1.86,.35,.09,0,.18,0,.27,0h0s0,0,0,0l4.98-5.07s0,0,0,0h0v-.12l-5.41-5.52h0c-2.83,.08-5.1,2.45-5.1,5.35,0,.98,.26,1.89,.71,2.68l-11.92,12.15Zm16.47-16.6c.96,0,1.74,.8,1.74,1.77s-.78,1.77-1.74,1.77-1.74-.8-1.74-1.77,.78-1.77,1.74-1.77Z" style="fill: none;"/>
        <path d="M56.74,75.81h0c2.9,0,5.26-2.41,5.26-5.36s-2.36-5.36-5.26-5.36-5.26,2.41-5.26,5.36h0s0,0,0,0l5.25,5.35s0,0,0,0Zm0-7.14c.96,0,1.73,.8,1.73,1.77s-.78,1.77-1.73,1.77-1.74-.8-1.74-1.77,.78-1.77,1.74-1.77Z" style="fill: none;"/>
        <path d="M38.7,85.91v5.89l-8.84,9.02h-5.35l-6.11,6.23,2.5,2.54,5.08-5.18h5.34l10.91-11.12v-5.89l12.01-12.24c.75,.41,1.59,.65,2.5,.65l-5.25-5.35c0,.72,.14,1.4,.39,2.03l-13.17,13.43Z" style="fill: none;"/>
      </g>
    </g>
    <g>
      <path d="M138.01,73.9v30.12c0,3.3,.84,5.82,2.53,7.56,1.69,1.74,4.06,2.61,7.11,2.61s5.49-.87,7.18-2.61c1.69-1.74,2.53-4.26,2.53-7.56v-30.12h9.64v30.05c0,4.14-.88,7.63-2.63,10.49-1.76,2.86-4.1,5.01-7.04,6.45s-6.21,2.16-9.81,2.16-6.78-.72-9.68-2.16c-2.9-1.44-5.19-3.59-6.87-6.45-1.69-2.86-2.53-6.35-2.53-10.49v-30.05h9.57Z" style="fill: #151515;"/>
      <path d="M208.17,87.74c2.78,2.91,4.17,6.96,4.17,12.16v22.66h-9.57v-21.33c0-3.07-.75-5.43-2.26-7.08-1.5-1.65-3.56-2.47-6.15-2.47s-4.73,.83-6.26,2.47c-1.53,1.65-2.29,4.01-2.29,7.08v21.33h-9.57v-38.62h9.57v4.81c1.28-1.67,2.91-2.99,4.89-3.94,1.98-.95,4.16-1.43,6.53-1.43,4.51,0,8.16,1.45,10.94,4.36Z" style="fill: #151515;"/>
      <path d="M222.09,77.7c-1.12-1.09-1.68-2.45-1.68-4.08s.56-2.99,1.68-4.08c1.12-1.09,2.52-1.64,4.21-1.64s3.09,.55,4.21,1.64c1.12,1.09,1.68,2.45,1.68,4.08s-.56,2.99-1.68,4.08c-1.12,1.09-2.52,1.64-4.21,1.64s-3.09-.54-4.21-1.64Zm8.92,6.24v38.62h-9.57v-38.62h9.57Z" style="fill: #151515;"/>
      <path d="M255.12,85.05c2.16-1.16,4.64-1.74,7.42-1.74,3.24,0,6.17,.81,8.79,2.44,2.62,1.63,4.7,3.94,6.22,6.94,1.53,3,2.29,6.47,2.29,10.42s-.76,7.45-2.29,10.49c-1.53,3.04-3.6,5.4-6.22,7.08-2.62,1.67-5.55,2.51-8.79,2.51-2.83,0-5.3-.57-7.42-1.71-2.12-1.14-3.82-2.61-5.09-4.43v5.51h-9.57v-51.59h9.57v18.61c1.23-1.86,2.93-3.37,5.09-4.53Zm13.54,12.02c-.93-1.7-2.17-2.99-3.69-3.87-1.53-.88-3.18-1.33-4.96-1.33s-3.36,.45-4.89,1.36c-1.53,.91-2.76,2.22-3.69,3.94-.93,1.72-1.4,3.74-1.4,6.07s.47,4.35,1.4,6.06c.93,1.72,2.17,3.03,3.69,3.94,1.53,.91,3.16,1.36,4.89,1.36s3.43-.46,4.96-1.39c1.53-.93,2.76-2.25,3.69-3.97,.93-1.72,1.4-3.76,1.4-6.13s-.47-4.33-1.4-6.03Z" style="fill: #151515;"/>
      <path d="M323.06,83.94l-23.46,56.88h-10.19l8.21-19.24-15.18-37.64h10.74l9.78,26.98,9.92-26.98h10.19Z" style="fill: #151515;"/>
      <path d="M339.33,91.96v18.68c0,1.3,.31,2.24,.92,2.82,.62,.58,1.65,.87,3.11,.87h4.45v8.23h-6.02c-8.07,0-12.1-4-12.1-11.99v-18.61h-4.51v-8.02h4.51v-9.55h9.64v9.55h8.48v8.02h-8.48Z" style="fill: #151515;"/>
      <path d="M389.67,106.18h-27.7c.23,2.79,1.18,4.97,2.87,6.55,1.69,1.58,3.76,2.37,6.22,2.37,3.56,0,6.09-1.56,7.59-4.67h10.33c-1.09,3.72-3.19,6.77-6.29,9.17-3.1,2.39-6.91,3.59-11.42,3.59-3.65,0-6.92-.82-9.81-2.47-2.9-1.65-5.15-3.98-6.77-7.01-1.62-3.02-2.43-6.51-2.43-10.46s.8-7.5,2.39-10.53c1.59-3.02,3.83-5.34,6.7-6.97,2.87-1.63,6.18-2.44,9.92-2.44s6.83,.79,9.68,2.37c2.85,1.58,5.06,3.82,6.63,6.73,1.57,2.9,2.36,6.24,2.36,10,0,1.39-.09,2.65-.27,3.76Zm-9.64-6.55c-.05-2.51-.94-4.52-2.67-6.03-1.73-1.51-3.85-2.27-6.36-2.27-2.37,0-4.37,.73-5.98,2.2-1.62,1.46-2.61,3.5-2.97,6.1h17.99Z" style="fill: #151515;"/>
      <path d="M403.07,121.48c-2.46-1.14-4.41-2.68-5.85-4.64-1.44-1.95-2.22-4.11-2.36-6.48h9.64c.18,1.49,.9,2.72,2.15,3.69,1.25,.98,2.81,1.46,4.68,1.46s3.25-.37,4.27-1.12c1.03-.74,1.54-1.7,1.54-2.86,0-1.25-.63-2.2-1.88-2.82-1.25-.63-3.25-1.31-5.98-2.06-2.83-.7-5.14-1.42-6.94-2.16-1.8-.74-3.35-1.88-4.65-3.42-1.3-1.53-1.95-3.6-1.95-6.2,0-2.14,.6-4.09,1.81-5.86,1.21-1.77,2.94-3.16,5.2-4.18s4.91-1.53,7.97-1.53c4.51,0,8.11,1.15,10.81,3.45,2.69,2.3,4.17,5.4,4.44,9.31h-9.16c-.14-1.53-.76-2.75-1.88-3.66-1.12-.91-2.61-1.36-4.48-1.36-1.73,0-3.07,.33-4,.98-.94,.65-1.4,1.56-1.4,2.72,0,1.3,.64,2.29,1.92,2.96,1.28,.67,3.26,1.36,5.95,2.06,2.74,.7,4.99,1.42,6.77,2.16s3.32,1.89,4.62,3.45c1.3,1.56,1.97,3.61,2.02,6.17,0,2.23-.6,4.23-1.81,6-1.21,1.77-2.94,3.15-5.2,4.15-2.26,1-4.89,1.5-7.9,1.5s-5.88-.57-8.34-1.71Z" style="fill: #151515;"/>
    </g>
  </g>
  <g>
    <path d="M359.11,138.56c-.47-.2-.84-.5-1.11-.88s-.41-.83-.42-1.36h1.8c.02,.35,.15,.63,.37,.83s.52,.3,.9,.3,.7-.09,.92-.29c.22-.19,.33-.44,.33-.75,0-.25-.08-.46-.23-.62s-.34-.29-.57-.38-.54-.2-.94-.31c-.54-.16-.98-.32-1.32-.48-.34-.16-.63-.4-.88-.72-.24-.32-.37-.75-.37-1.29,0-.5,.12-.94,.37-1.32,.25-.38,.6-.66,1.04-.86s.96-.3,1.53-.3c.86,0,1.56,.21,2.1,.64s.84,1.02,.89,1.79h-1.84c-.02-.29-.14-.54-.37-.73s-.53-.29-.9-.29c-.33,0-.59,.09-.78,.26-.2,.17-.29,.42-.29,.75,0,.23,.07,.42,.22,.57s.33,.27,.55,.37,.53,.2,.93,.32c.54,.16,.99,.33,1.33,.49,.34,.16,.64,.41,.89,.73,.25,.33,.37,.75,.37,1.28,0,.46-.12,.88-.35,1.27-.23,.39-.57,.7-1.02,.93-.45,.23-.98,.35-1.59,.35s-1.11-.1-1.58-.31Z" style="fill: #b7241c;"/>
    <path d="M365.2,130.92c-.2-.19-.29-.43-.29-.71s.1-.52,.29-.71c.2-.19,.44-.29,.74-.29s.54,.1,.74,.29c.2,.19,.29,.43,.29,.71s-.1,.52-.29,.71c-.2,.19-.44,.29-.74,.29s-.54-.1-.74-.29Zm1.56,1.09v6.77h-1.68v-6.77h1.68Z" style="fill: #b7241c;"/>
    <path d="M374.01,132.68c.49,.51,.73,1.22,.73,2.13v3.97h-1.68v-3.74c0-.54-.13-.95-.4-1.24s-.62-.43-1.08-.43-.83,.14-1.1,.43-.4,.7-.4,1.24v3.74h-1.68v-6.77h1.68v.84c.22-.29,.51-.52,.86-.69s.73-.25,1.14-.25c.79,0,1.43,.25,1.92,.76Z" style="fill: #b7241c;"/>
    <path d="M376.33,133.56c.28-.53,.67-.93,1.16-1.22s1.06-.43,1.7-.43c.82,0,1.5,.21,2.04,.63s.9,1.01,1.08,1.76h-1.81c-.1-.29-.26-.52-.48-.69s-.51-.25-.84-.25c-.48,0-.86,.18-1.14,.53-.28,.35-.42,.86-.42,1.51s.14,1.14,.42,1.5c.28,.35,.66,.53,1.14,.53,.68,0,1.12-.31,1.33-.93h1.81c-.18,.73-.55,1.31-1.09,1.75s-1.22,.65-2.04,.65c-.64,0-1.21-.14-1.7-.43s-.88-.7-1.16-1.22-.42-1.14-.42-1.84,.14-1.31,.42-1.84Z" style="fill: #b7241c;"/>
    <path d="M389.67,135.91h-4.85c.04,.49,.21,.87,.5,1.15,.29,.28,.66,.42,1.09,.42,.62,0,1.07-.27,1.33-.82h1.81c-.19,.65-.56,1.19-1.1,1.61-.54,.42-1.21,.63-2,.63-.64,0-1.21-.14-1.72-.43-.51-.29-.9-.7-1.19-1.23s-.42-1.14-.42-1.83,.14-1.31,.42-1.84,.67-.94,1.17-1.22c.5-.28,1.08-.43,1.74-.43s1.2,.14,1.7,.42,.89,.67,1.16,1.18,.41,1.09,.41,1.75c0,.24-.02,.46-.05,.66Zm-1.69-1.15c0-.44-.16-.79-.47-1.06s-.67-.4-1.11-.4c-.42,0-.76,.13-1.05,.38-.28,.26-.46,.61-.52,1.07h3.15Z" style="fill: #b7241c;"/>
    <path d="M394.13,136.85c.77-.65,1.38-1.19,1.83-1.63s.83-.89,1.14-1.36c.3-.47,.46-.94,.46-1.39,0-.42-.1-.74-.29-.98s-.49-.35-.89-.35-.71,.14-.92,.41c-.22,.27-.33,.65-.34,1.12h-1.63c.03-.98,.32-1.72,.86-2.22s1.22-.76,2.05-.76c.91,0,1.61,.25,2.1,.74,.49,.49,.73,1.14,.73,1.95,0,.63-.17,1.24-.5,1.82-.34,.58-.72,1.08-1.15,1.51-.43,.43-.99,.94-1.69,1.54h3.53v1.42h-5.92v-1.27l.62-.54Z" style="fill: #b7241c;"/>
    <path d="M401.23,130.9c.5-.8,1.33-1.2,2.49-1.2s1.99,.4,2.49,1.2c.5,.8,.75,1.9,.75,3.31s-.25,2.53-.75,3.33-1.33,1.21-2.49,1.21-1.99-.4-2.49-1.21-.75-1.92-.75-3.33,.25-2.51,.75-3.31Zm3.95,1.79c-.08-.41-.23-.75-.46-1.01s-.57-.39-1.01-.39-.78,.13-1.01,.39-.38,.6-.46,1.01c-.08,.41-.11,.92-.11,1.52s.04,1.14,.11,1.56c.07,.42,.22,.76,.46,1.01,.23,.26,.57,.38,1.02,.38s.79-.13,1.02-.38c.23-.26,.38-.59,.46-1.01,.07-.42,.11-.94,.11-1.56s-.04-1.11-.11-1.52Z" style="fill: #b7241c;"/>
    <path d="M408.74,136.85c.77-.65,1.38-1.19,1.83-1.63s.83-.89,1.14-1.36c.3-.47,.46-.94,.46-1.39,0-.42-.1-.74-.29-.98s-.49-.35-.89-.35-.71,.14-.92,.41c-.22,.27-.33,.65-.34,1.12h-1.63c.03-.98,.32-1.72,.86-2.22s1.22-.76,2.05-.76c.91,0,1.61,.25,2.1,.74,.49,.49,.73,1.14,.73,1.95,0,.63-.17,1.24-.5,1.82-.34,.58-.72,1.08-1.15,1.51-.43,.43-.99,.94-1.69,1.54h3.53v1.42h-5.92v-1.27l.62-.54Z" style="fill: #b7241c;"/>
    <path d="M415.96,130.34c.52-.44,1.21-.67,2.07-.67,.58,0,1.08,.1,1.5,.31,.42,.21,.73,.49,.94,.84s.32,.75,.32,1.2c0,.51-.13,.95-.39,1.3-.26,.35-.57,.59-.93,.71v.05c.46,.15,.82,.41,1.08,.78,.26,.38,.39,.86,.39,1.44,0,.49-.11,.92-.33,1.31s-.54,.68-.97,.9c-.43,.22-.94,.32-1.54,.32-.9,0-1.64-.23-2.2-.7s-.87-1.15-.9-2.05h1.63c.02,.4,.15,.72,.4,.96,.25,.24,.6,.36,1.04,.36,.41,0,.72-.12,.94-.35s.33-.53,.33-.9c0-.49-.15-.84-.46-1.05-.3-.21-.78-.32-1.41-.32h-.35v-1.4h.35c1.13,0,1.7-.39,1.7-1.16,0-.35-.1-.62-.31-.82-.2-.2-.5-.29-.88-.29s-.67,.1-.87,.31c-.2,.21-.32,.47-.35,.79h-1.64c.04-.81,.32-1.44,.84-1.89Z" style="fill: #b7241c;"/>
  </g>
</svg>